<svg width="460" height="84" viewBox="0 0 5735 1055" fill="none" xmlns="http://www.w3.org/2000/svg">
<path d="M977.427 105.68C977.708 111.86 977.868 118 977.868 124.1C977.879 147.579 975.743 171.01 971.487 194.1L971.068 194.02C936.413 179.425 907.765 153.459 889.847 120.4L889.647 120.02C918.256 111.869 947.712 107.057 977.427 105.68Z" fill="#5F6A78"/>
<path d="M729.547 485.2C722.327 487.98 715.001 490.54 707.568 492.88L676.867 464.94L649.907 440.38L616.467 409.96C618.027 402.88 619.794 395.873 621.768 388.94C633.349 347.714 651.706 308.702 676.087 273.5C727.447 199.245 802.893 145.024 889.647 120.02L889.847 120.4C907.765 153.459 936.413 179.425 971.068 194.02L971.487 194.1C955.037 283.051 907.951 363.43 838.407 421.28C805.885 448.431 769.104 470.027 729.547 485.2Z" fill="#E5F5FD"/>
<path d="M850.027 542.36L779.248 621.24L734.068 579.58C721.062 567.599 713.297 550.979 712.451 533.317C711.605 515.654 717.747 498.369 729.547 485.2C769.104 470.027 805.885 448.431 838.407 421.28L838.467 421.34C833.197 430.341 831.179 440.879 832.752 451.191C834.325 461.502 839.393 470.96 847.107 477.98C856.024 486.104 861.351 497.435 861.917 509.485C862.484 521.534 858.243 533.315 850.128 542.24L850.027 542.36Z" fill="#5F6A78"/>
<path d="M779.247 621.24L850.027 542.36C836.868 743.82 668.367 903.18 462.427 903.18C411.71 903.249 361.468 893.404 314.527 874.2V874.18C521.087 760.8 628.288 591.62 662.068 531.54L662.927 530.6L663.707 531.32L676.867 464.94L707.568 492.88C714.988 490.54 722.314 487.98 729.547 485.2C717.747 498.369 711.605 515.654 712.451 533.317C713.297 550.979 721.062 567.599 734.068 579.58L779.247 621.24Z" fill="#49BDFF"/>
<path d="M716.187 224.52C701.523 239.739 688.113 256.119 676.087 273.5C667.619 279.587 657.318 282.582 646.907 281.985C636.495 281.388 626.604 277.235 618.887 270.22C609.965 262.095 598.181 257.847 586.126 258.409C574.072 258.972 562.734 264.299 554.607 273.22L482.607 351.18L528.307 392.28C541.284 403.938 558.279 410.105 575.712 409.482C593.145 408.859 609.656 401.494 621.767 388.94C619.787 395.88 618.021 402.886 616.467 409.96L649.907 440.38L583.027 457.86L583.727 458.5C565.407 483.36 520.607 542.78 464.647 607.46L454.347 595.42C452.767 593.58 451.267 591.66 449.847 589.68L429.627 561.66C418.447 546.16 400.567 535.88 381.367 536.38C379.44 536.443 377.535 535.942 375.887 534.94L334.567 510.3C328.617 506.771 321.859 504.829 314.943 504.661C308.026 504.493 301.183 506.104 295.067 509.34L273.287 520.94C263.763 526.016 252.676 527.319 242.235 524.587C231.794 521.855 222.765 515.29 216.947 506.2L195.787 473C191.001 465.485 188.524 456.731 188.662 447.823C188.801 438.914 191.549 430.242 196.567 422.88C201.963 414.927 209.461 408.629 218.226 404.688C226.991 400.747 236.678 399.318 246.207 400.56L277.927 404.58C283.455 405.339 289.084 404.463 294.12 402.06C299.156 399.658 303.379 395.834 306.267 391.06C311.249 382.571 318.617 375.735 327.453 371.4C336.29 367.065 346.205 365.424 355.967 366.68L369.827 368.44C374.688 369.045 379.623 368.381 384.151 366.513C388.68 364.645 392.647 361.636 395.667 357.78L407.887 342C413.274 335.097 416.302 326.647 416.525 317.894C416.749 309.141 414.155 300.548 409.127 293.38L382.767 255.6C372.642 241.083 359.469 228.954 344.167 220.06C340.15 217.717 336.271 215.146 332.547 212.36L310.327 195.78L282.187 174.72C351.252 138.814 429.471 124.371 506.804 133.245C584.136 142.119 657.051 173.904 716.187 224.52Z" fill="#49BDFF"/>
<path d="M583.727 458.5L583.027 457.86L649.907 440.38L676.867 464.94L663.707 531.32L662.927 530.6L583.727 458.5Z" fill="#4A5160"/>
<path d="M662.927 530.6L662.068 531.54C628.287 591.62 521.087 760.8 314.527 874.18C278.716 893.836 241.549 910.912 203.307 925.28C203.307 925.28 -151.393 1033.32 105.467 670.46C-30.9725 935.2 218.827 824.26 223.907 821.82L223.927 821.8C256.927 805.62 292.627 779.24 328.367 747.76C375.787 706.02 423.267 655.3 464.647 607.46C520.607 542.78 565.407 483.36 583.727 458.5L662.927 530.6Z" fill="#FADF4A"/>
<path d="M618.888 270.22C626.604 277.235 636.495 281.388 646.907 281.985C657.318 282.582 667.619 279.586 676.087 273.5C651.706 308.702 633.349 347.714 621.768 388.94C609.656 401.494 593.145 408.859 575.712 409.482C558.279 410.105 541.284 403.938 528.307 392.28L482.607 351.18L554.607 273.22C562.735 264.299 574.072 258.972 586.126 258.409C598.181 257.847 609.965 262.095 618.888 270.22Z" fill="#5F6A78"/>
<path d="M454.347 595.42L464.648 607.46C423.268 655.3 375.788 706.02 328.368 747.76L327.048 746.28C325.085 739.69 321.933 733.515 317.748 728.06L272.887 669.58C268.853 664.317 265.865 658.329 264.088 651.94L249.287 598.84C246.651 589.54 241.657 581.08 234.789 574.279C227.921 567.477 219.412 562.566 210.088 560.02L206.868 559.16C200.338 557.377 194.339 554.035 189.387 549.42L161.768 523.58C157.399 519.484 153.641 514.783 150.607 509.62C144.154 498.603 134.436 489.864 122.798 484.611C111.161 479.359 98.1787 477.852 85.6475 480.3L80.3475 481.34L75.6875 480.9C88.0675 347.66 168.548 234.02 282.188 174.72L310.327 195.78L332.547 212.36C336.271 215.146 340.15 217.717 344.167 220.06C359.469 228.954 372.642 241.083 382.768 255.6L409.128 293.38C414.155 300.548 416.749 309.141 416.525 317.894C416.302 326.647 413.274 335.097 407.888 342L395.667 357.78C392.647 361.636 388.68 364.645 384.151 366.513C379.623 368.381 374.688 369.045 369.828 368.44L355.968 366.68C346.206 365.424 336.29 367.065 327.453 371.4C318.617 375.735 311.249 382.571 306.268 391.06C303.379 395.834 299.157 399.658 294.121 402.06C289.085 404.463 283.455 405.339 277.928 404.58L246.208 400.56C236.678 399.318 226.991 400.747 218.226 404.688C209.461 408.629 201.963 414.927 196.568 422.88C191.55 430.242 188.801 438.914 188.662 447.823C188.524 456.731 191.001 465.485 195.788 473L216.948 506.2C222.765 515.29 231.794 521.855 242.235 524.587C252.676 527.319 263.763 526.016 273.287 520.94L295.067 509.34C301.183 506.104 308.026 504.493 314.943 504.661C321.859 504.829 328.617 506.771 334.568 510.3L375.888 534.94C377.535 535.942 379.44 536.443 381.367 536.38C400.568 535.88 418.448 546.16 429.628 561.66L449.847 589.68C451.267 591.66 452.767 593.58 454.347 595.42Z" fill="#9BE147"/>
<path d="M337.688 50.6998C342.928 55.947 349.316 59.9045 356.347 62.2598C349.313 64.6206 342.925 68.5854 337.687 73.8407C332.449 79.096 328.505 85.4977 326.167 92.5398C323.831 85.4972 319.888 79.0949 314.65 73.8395C309.411 68.5841 303.022 64.6196 295.987 62.2598C303.023 59.9072 309.414 55.9476 314.652 50.695C319.891 45.4425 323.834 39.0415 326.167 31.9998C328.506 39.0419 332.45 45.4439 337.688 50.6998Z" fill="#3090FC"/>
<path d="M327.047 746.28L328.367 747.76C292.627 779.24 256.927 805.62 223.927 821.8L223.907 821.82C172.466 782.013 131.86 729.908 105.827 670.3C84.7703 621.917 73.9372 569.706 74.0075 516.94C74.0075 504.78 74.5675 492.766 75.6875 480.9L80.3475 481.34L85.6475 480.3C98.1787 477.852 111.161 479.359 122.798 484.611C134.436 489.864 144.154 498.603 150.607 509.62C153.641 514.783 157.399 519.484 161.767 523.58L189.387 549.42C194.339 554.034 200.338 557.377 206.867 559.16L210.087 560.02C219.412 562.565 227.921 567.477 234.789 574.279C241.657 581.08 246.651 589.54 249.287 598.84L264.087 651.94C265.865 658.329 268.853 664.317 272.887 669.58L317.747 728.06C321.933 733.515 325.085 739.69 327.047 746.28Z" fill="#49BDFF"/>
<path d="M839.308 257.4C846.352 263.813 851.337 272.172 853.631 281.419C855.926 290.665 855.427 300.384 852.198 309.347C848.969 318.31 843.154 326.115 835.49 331.773C827.826 337.432 818.656 340.691 809.139 341.139C799.623 341.586 790.188 339.202 782.026 334.287C773.865 329.372 767.344 322.148 763.288 313.528C759.232 304.907 757.824 295.278 759.241 285.857C760.657 276.436 764.836 267.646 771.247 260.6C779.849 251.152 791.852 245.507 804.615 244.907C817.378 244.307 829.857 248.801 839.308 257.4Z" fill="#5F6A78"/>
<path d="M626.987 526.88C627.117 529.432 626.888 531.991 626.307 534.48C625.065 539.8 622.281 544.636 618.304 548.382C614.327 552.128 609.333 554.618 603.948 555.54L568.847 561.58L571.568 526.06C572.1 519.007 575.304 512.424 580.526 507.654C585.747 502.883 592.592 500.285 599.663 500.39C606.735 500.495 613.5 503.294 618.578 508.217C623.656 513.14 626.664 519.815 626.987 526.88Z" fill="#ED6337"/>
<path d="M462.427 130.7C399.673 130.594 337.828 145.699 282.188 174.72L310.327 195.78L332.547 212.36L338.188 214.72C396.832 184.248 462.247 169.147 528.315 170.828C594.382 172.509 658.944 190.917 715.964 224.332C645.395 163.759 555.427 130.534 462.427 130.7Z" fill="#3090FC"/>
<path d="M336.891 215.422C335.427 214.422 333.965 213.422 332.547 212.36L310.327 195.78L282.188 174.72C168.548 234.02 88.0675 347.66 75.6875 480.9L80.3475 481.34L85.6475 480.3C94.3285 478.603 103.273 478.799 111.872 480.874C120.47 482.949 128.52 486.854 135.471 492.324C155.839 372.02 232.143 270.59 336.891 215.422Z" fill="#50DD5A"/>
<path d="M167.827 684.3C146.77 635.917 135.937 583.706 136.007 530.94C136.007 518.78 136.567 506.766 137.687 494.9L138.669 494.992C131.577 488.597 123.094 483.941 113.892 481.391C104.689 478.841 95.0194 478.467 85.6475 480.3L80.3475 481.34L75.6875 480.9C74.5675 492.766 74.0075 504.78 74.0075 516.94C73.9372 569.706 84.7703 621.917 105.827 670.3C131.86 729.908 172.466 782.013 223.907 821.82L223.927 821.8C233.511 817.048 242.845 811.811 251.893 806.108C216.293 771.294 187.749 729.935 167.827 684.3Z" fill="#3090FC"/>
<path d="M178.705 179.882C181.446 179.884 184.103 178.945 186.233 177.222C193.799 171.118 201.651 165.202 209.571 159.636C210.861 158.73 211.959 157.578 212.803 156.248C213.648 154.917 214.222 153.433 214.493 151.881C214.764 150.329 214.726 148.738 214.383 147.2C214.039 145.662 213.396 144.207 212.489 142.918C211.583 141.628 210.432 140.53 209.102 139.686C207.771 138.841 206.287 138.267 204.735 137.996C203.182 137.725 201.592 137.763 200.054 138.106C198.516 138.45 197.061 139.094 195.771 140C187.419 145.868 179.139 152.108 171.171 158.542C169.239 160.101 167.837 162.221 167.16 164.61C166.483 166.999 166.564 169.539 167.392 171.88C168.219 174.221 169.752 176.248 171.78 177.681C173.808 179.115 176.23 179.883 178.713 179.882H178.705Z" fill="#284268"/>
<path d="M35.8495 369.2C37.3223 369.761 38.8913 370.026 40.4667 369.981C42.0422 369.935 43.5931 369.579 45.0309 368.933C46.4686 368.288 47.765 367.365 48.8458 366.218C49.9266 365.07 50.7706 363.721 51.3295 362.248C73.3913 304.278 107.64 251.719 151.762 208.124C152.903 207.018 153.814 205.697 154.441 204.236C155.068 202.776 155.398 201.205 155.413 199.616C155.428 198.027 155.127 196.451 154.528 194.979C153.929 193.507 153.043 192.168 151.922 191.042C150.802 189.915 149.468 189.022 148 188.414C146.531 187.807 144.956 187.497 143.367 187.503C141.778 187.51 140.206 187.831 138.742 188.45C137.278 189.069 135.951 189.972 134.84 191.108C88.2938 237.107 52.1652 292.562 28.8955 353.726C27.7668 356.7 27.8653 360.001 29.1693 362.902C30.4733 365.804 32.8761 368.069 35.8495 369.2Z" fill="#284268"/>
<path d="M857.021 735.508C855.669 734.699 854.17 734.164 852.611 733.934C851.052 733.704 849.463 733.783 847.934 734.167C846.406 734.552 844.968 735.233 843.703 736.173C842.438 737.113 841.37 738.293 840.561 739.646C833.841 750.882 826.501 761.97 818.747 772.606C817.796 773.877 817.106 775.325 816.718 776.866C816.33 778.406 816.252 780.008 816.488 781.579C816.724 783.149 817.27 784.658 818.093 786.016C818.916 787.374 820.001 788.556 821.284 789.492C822.568 790.427 824.024 791.099 825.569 791.468C827.114 791.837 828.717 791.895 830.285 791.64C831.852 791.384 833.354 790.82 834.702 789.98C836.05 789.14 837.218 788.041 838.138 786.746C846.32 775.526 854.065 763.824 861.159 751.966C862.793 749.235 863.275 745.966 862.499 742.88C861.723 739.793 859.753 737.142 857.021 735.508Z" fill="#284268"/>
<path d="M907.354 646.22C914.175 622.85 919.124 598.975 922.153 574.82C924.55 555.624 925.752 536.298 925.753 516.954C925.753 513.771 924.489 510.719 922.239 508.468C919.988 506.218 916.936 504.954 913.753 504.954C910.571 504.954 907.519 506.218 905.268 508.468C903.018 510.719 901.753 513.771 901.753 516.954C901.756 535.301 900.621 553.631 898.354 571.838C895.485 594.727 890.798 617.351 884.337 639.496C880.419 652.896 875.795 666.26 870.591 679.202C867.391 687.154 863.921 695.094 860.269 702.802C858.907 705.678 858.743 708.978 859.814 711.975C860.884 714.973 863.102 717.422 865.979 718.785C868.855 720.147 872.155 720.311 875.152 719.24C878.15 718.17 880.599 715.952 881.961 713.076C885.817 704.932 889.484 696.546 892.862 688.15C898.336 674.48 903.218 660.374 907.354 646.22Z" fill="#284268"/>
<path d="M247.867 137.19C255.517 137.19 261.717 130.994 261.717 123.352C261.717 115.709 255.517 109.514 247.867 109.514C240.218 109.514 234.017 115.709 234.017 123.352C234.017 130.994 240.218 137.19 247.867 137.19Z" fill="#284268"/>
<path d="M795.365 802.9C792.629 802.902 789.954 803.715 787.679 805.237C785.404 806.759 783.632 808.921 782.586 811.45C781.54 813.979 781.267 816.762 781.803 819.446C782.338 822.13 783.657 824.595 785.593 826.53C787.529 828.464 789.995 829.781 792.679 830.314C795.364 830.848 798.146 830.573 800.674 829.525C803.202 828.477 805.363 826.703 806.884 824.428C808.404 822.152 809.216 819.476 809.216 816.74C809.21 813.069 807.749 809.55 805.152 806.956C802.556 804.361 799.036 802.902 795.365 802.9Z" fill="#284268"/>
<path d="M672.039 969.732C668.87 969.732 665.772 970.672 663.137 972.432C660.502 974.193 658.448 976.696 657.235 979.624C656.022 982.552 655.705 985.774 656.324 988.883C656.942 991.991 658.468 994.846 660.71 997.087C662.951 999.328 665.806 1000.85 668.915 1001.47C672.023 1002.09 675.245 1001.77 678.173 1000.56C681.101 999.346 683.603 997.292 685.364 994.657C687.124 992.021 688.064 988.923 688.063 985.754C688.058 981.506 686.368 977.433 683.364 974.43C680.36 971.426 676.288 969.736 672.039 969.732Z" fill="#284268"/>
<path d="M696.183 955.504C708.367 955.504 718.243 945.627 718.243 933.444C718.243 921.26 708.367 911.384 696.183 911.384C684 911.384 674.123 921.26 674.123 933.444C674.123 945.627 684 955.504 696.183 955.504Z" fill="#284268"/>
<path d="M64.4295 120.544C67.5988 120.544 70.6968 119.604 73.332 117.843C75.9671 116.082 78.0209 113.58 79.2338 110.652C80.4466 107.724 80.7639 104.502 80.1456 101.393C79.5273 98.2851 78.0012 95.4299 75.7602 93.1889C73.5192 90.9479 70.664 89.4218 67.5556 88.8035C64.4473 88.1852 61.2254 88.5025 58.2974 89.7154C55.3694 90.9282 52.8668 92.982 51.106 95.6172C49.3453 98.2523 48.4055 101.35 48.4055 104.52C48.4103 108.768 50.1001 112.841 53.1041 115.845C56.1082 118.849 60.1812 120.539 64.4295 120.544Z" fill="#284268"/>
<path d="M88.5735 74.2677C92.9362 74.2677 97.201 72.9741 100.829 70.5505C104.456 68.1269 107.284 64.682 108.954 60.6516C110.623 56.6211 111.061 52.186 110.21 47.907C109.36 43.628 107.259 39.6972 104.175 36.6118C101.091 33.5263 97.1608 31.4247 92.8821 30.5726C88.6034 29.7205 84.1681 30.1562 80.137 31.8246C76.106 33.4931 72.6601 36.3193 70.2352 39.946C67.8102 43.5727 66.5151 47.837 66.5135 52.1997C66.5172 58.05 68.8423 63.6597 72.9783 67.7972C77.1143 71.9347 82.7232 74.2619 88.5735 74.2677Z" fill="#284268"/>
<path d="M292.188 73.6497C297.45 75.4268 302.228 78.3986 306.149 82.3321C310.071 86.2657 313.027 91.054 314.787 96.3217C315.583 98.713 317.11 100.793 319.154 102.268C321.198 103.742 323.654 104.535 326.174 104.535C328.695 104.535 331.151 103.742 333.195 102.268C335.238 100.793 336.766 98.713 337.561 96.3217C339.322 91.0541 342.279 86.266 346.2 82.3325C350.121 78.399 354.9 75.4271 360.161 73.6497C362.549 72.8518 364.624 71.3235 366.095 69.2811C367.566 67.2387 368.357 64.7855 368.357 62.2687C368.357 59.7518 367.566 57.2987 366.095 55.2563C364.624 53.2139 362.549 51.6856 360.161 50.8877C354.9 49.1097 350.121 46.1373 346.2 42.2035C342.279 38.2697 339.322 33.4814 337.561 28.2137C336.766 25.8223 335.238 23.742 333.195 22.2677C331.151 20.7934 328.695 20 326.174 20C323.654 20 321.198 20.7934 319.154 22.2677C317.11 23.742 315.583 25.8223 314.787 28.2137C313.027 33.4816 310.071 38.2702 306.15 42.204C302.228 46.1379 297.45 49.1101 292.188 50.8877C289.8 51.6856 287.725 53.2139 286.254 55.2563C284.783 57.2987 283.992 59.7518 283.992 62.2687C283.992 64.7855 284.783 67.2387 286.254 69.2811C287.725 71.3235 289.8 72.8518 292.188 73.6497ZM326.171 55.8497C328.142 58.1438 330.281 60.2871 332.572 62.2617C330.281 64.2362 328.142 66.3795 326.171 68.6737C324.2 66.3805 322.061 64.2372 319.771 62.2617C322.059 60.2879 324.197 58.1467 326.167 55.8557L326.171 55.8497Z" fill="#284268"/>
<path d="M458.737 970.35C453.476 968.572 448.697 965.6 444.776 961.667C440.855 957.733 437.898 952.945 436.137 947.678C435.342 945.286 433.814 943.206 431.771 941.732C429.727 940.257 427.271 939.464 424.75 939.464C422.23 939.464 419.774 940.257 417.73 941.732C415.687 943.206 414.159 945.286 413.363 947.678C411.603 952.945 408.647 957.734 404.725 961.667C400.804 965.601 396.026 968.572 390.763 970.35C388.376 971.147 386.301 972.676 384.83 974.718C383.359 976.761 382.568 979.214 382.568 981.731C382.568 984.247 383.359 986.701 384.83 988.743C386.301 990.785 388.376 992.314 390.763 993.112C396.026 994.889 400.805 997.861 404.726 1001.8C408.647 1005.73 411.603 1010.52 413.363 1015.79C414.159 1018.18 415.687 1020.26 417.73 1021.73C419.774 1023.21 422.23 1024 424.75 1024C427.271 1024 429.727 1023.21 431.771 1021.73C433.814 1020.26 435.342 1018.18 436.137 1015.79C437.898 1010.52 440.855 1005.73 444.776 1001.8C448.697 997.862 453.475 994.889 458.737 993.112C461.125 992.314 463.2 990.785 464.671 988.743C466.142 986.701 466.933 984.247 466.933 981.731C466.933 979.214 466.142 976.761 464.671 974.718C463.2 972.676 461.125 971.147 458.737 970.35ZM424.753 988.15C422.783 985.856 420.643 983.713 418.353 981.738C420.643 979.762 422.782 977.619 424.753 975.326C426.724 977.62 428.863 979.763 431.153 981.738C428.863 983.71 426.723 985.851 424.753 988.144V988.15Z" fill="#284268"/>
<path d="M963.737 865.728C958.476 863.95 953.697 860.978 949.776 857.045C945.855 853.111 942.898 848.323 941.138 843.056C940.342 840.664 938.814 838.584 936.771 837.11C934.727 835.635 932.271 834.842 929.75 834.842C927.23 834.842 924.774 835.635 922.73 837.11C920.686 838.584 919.159 840.664 918.363 843.056C916.603 848.323 913.647 853.112 909.725 857.045C905.804 860.979 901.026 863.951 895.763 865.728C893.376 866.526 891.301 868.054 889.83 870.096C888.359 872.139 887.568 874.592 887.568 877.109C887.568 879.626 888.359 882.079 889.83 884.121C891.301 886.163 893.376 887.692 895.763 888.49C901.026 890.267 905.805 893.239 909.726 897.173C913.647 901.107 916.603 905.896 918.363 911.164C919.159 913.555 920.686 915.635 922.73 917.11C924.774 918.584 927.23 919.377 929.75 919.377C932.271 919.377 934.727 918.584 936.771 917.11C938.814 915.635 940.342 913.555 941.138 911.164C942.898 905.896 945.855 901.108 949.776 897.174C953.697 893.24 958.476 890.268 963.737 888.49C966.125 887.692 968.2 886.163 969.671 884.121C971.142 882.079 971.933 879.626 971.933 877.109C971.933 874.592 971.142 872.139 969.671 870.096C968.2 868.054 966.125 866.526 963.737 865.728ZM929.753 883.528C927.782 881.234 925.643 879.091 923.354 877.116C925.643 875.14 927.782 872.997 929.753 870.704C931.723 872.998 933.863 875.142 936.154 877.116C933.863 879.088 931.723 881.229 929.753 883.522V883.528Z" fill="#284268"/>
<path d="M976.862 93.6937C888.098 97.6514 803.246 131.353 735.956 189.376C728.875 195.436 722.032 201.735 715.425 208.274C643.854 150.297 554.533 118.676 462.425 118.708C241.625 118.708 61.9975 297.358 61.9975 516.946C61.9295 569.033 72.1236 620.623 91.9975 668.77C6.60148 790.674 -19.0125 872.094 13.7755 917.518C33.1615 944.374 69.8075 952.22 106.019 952.22C155.089 952.22 203.361 937.82 206.819 936.76C207.063 936.686 207.305 936.604 207.543 936.514C244.558 922.61 280.589 906.214 315.387 887.44C386.06 915.129 463.121 922.273 537.68 908.048C612.238 893.822 681.255 858.806 736.768 807.04C809.634 739.196 854.246 646.375 861.703 547.094C870.651 535.666 874.952 521.28 873.744 506.816C872.536 492.352 865.909 478.879 855.19 469.094C849.773 464.127 846.133 457.522 844.826 450.29C843.519 443.057 844.618 435.596 847.953 429.048C894.803 389.525 931.93 339.751 956.459 283.58C980.988 227.408 992.263 166.345 989.409 105.118C989.339 103.542 988.959 101.997 988.29 100.569C987.62 99.141 986.676 97.8595 985.51 96.798C984.344 95.7364 982.979 94.9157 981.495 94.383C980.011 93.8503 978.436 93.616 976.862 93.6937ZM462.429 142.708C548.352 142.679 631.716 171.945 698.766 225.676C687.652 238.011 677.304 251.015 667.779 264.616C661.564 268.639 654.195 270.499 646.815 269.906C639.435 269.313 632.457 266.301 626.964 261.338C615.698 251.082 600.823 245.715 585.604 246.418C570.386 247.12 556.068 253.834 545.795 265.084L473.787 343.032C472.709 344.2 471.874 345.57 471.33 347.064C470.787 348.558 470.545 350.144 470.619 351.732C470.694 353.32 471.083 354.877 471.764 356.313C472.445 357.749 473.405 359.036 474.587 360.098L520.287 401.2C534.827 414.275 553.701 421.491 573.255 421.452C584.343 421.452 595.309 419.144 605.456 414.676C606.124 416.255 607.125 417.673 608.389 418.832L625.459 434.372L579.987 446.256C577.897 446.802 575.993 447.903 574.476 449.441C572.959 450.98 571.886 452.9 571.37 454.998V455.04C552.859 480.026 513.589 531.774 464.684 589.03L463.483 587.63C462.121 586.03 460.807 584.364 459.585 582.668L439.367 554.648C425.624 535.594 404.549 524.364 382.715 524.364C382.341 524.364 381.964 524.364 381.587 524.364L340.707 499.986C332.98 495.409 324.207 492.892 315.229 492.675C306.251 492.458 297.367 494.549 289.427 498.748L267.653 510.348C260.789 513.98 252.812 514.906 245.298 512.944C237.784 510.981 231.279 506.273 227.067 499.748L205.917 466.548C202.389 461.015 200.562 454.569 200.664 448.007C200.767 441.446 202.794 435.059 206.493 429.64C210.65 423.521 216.424 418.677 223.171 415.647C229.919 412.617 237.375 411.52 244.709 412.478L276.434 416.478C284.293 417.549 292.295 416.285 299.442 412.845C306.59 409.404 312.568 403.938 316.633 397.126C320.421 390.664 326.027 385.46 332.753 382.162C339.478 378.865 347.025 377.619 354.453 378.582L368.327 380.344C375.257 381.211 382.293 380.264 388.747 377.596C395.202 374.928 400.853 370.631 405.147 365.124L417.371 349.354C424.338 340.434 428.254 329.512 428.542 318.198C428.83 306.884 425.475 295.776 418.971 286.514L392.619 248.726C381.474 232.799 367.008 219.477 350.219 209.678C346.596 207.567 343.095 205.253 339.733 202.746L305.237 176.946C354.551 154.327 408.176 142.647 462.429 142.708ZM649.053 293.95C632.865 321.853 620.117 351.614 611.087 382.584C600.968 392.013 587.69 397.319 573.86 397.46C560.029 397.601 546.645 392.568 536.336 383.348L499.667 350.384L563.483 281.306C566.445 278.052 570.018 275.414 573.999 273.542C577.98 271.67 582.291 270.6 586.686 270.394C591.08 270.188 595.472 270.849 599.611 272.341C603.75 273.832 607.555 276.124 610.807 279.086C621.292 288.578 634.91 293.871 649.053 293.95ZM607.453 463.88L646.621 453.64L663.777 469.256L656.073 508.142L607.453 463.88ZM615.008 527.438C615.194 531.282 613.965 535.061 611.554 538.061C609.144 541.061 605.718 543.074 601.923 543.72L581.982 547.146L583.526 526.978C583.781 523.821 584.974 520.812 586.952 518.337C588.93 515.863 591.602 514.037 594.625 513.092C595.887 512.705 597.193 512.479 598.511 512.42C598.763 512.408 599.016 512.402 599.268 512.402C603.32 512.408 607.214 513.973 610.145 516.772C613.075 519.571 614.816 523.39 615.008 527.438ZM281.255 189L325.361 221.982C329.455 225.036 333.719 227.855 338.132 230.426C351.91 238.463 363.783 249.391 372.931 262.458L399.283 300.248C402.842 305.319 404.677 311.399 404.52 317.592C404.363 323.785 402.221 329.764 398.409 334.648L386.188 350.416C384.454 352.63 382.177 354.358 379.577 355.43C376.977 356.501 374.144 356.881 371.353 356.532L357.481 354.768C345.386 353.209 333.099 355.244 322.153 360.621C311.207 365.998 302.085 374.478 295.925 385.004C294.211 387.734 291.742 389.91 288.819 391.269C285.895 392.627 282.64 393.111 279.447 392.662L247.729 388.662C236.006 387.133 224.089 388.891 213.306 393.74C202.523 398.589 193.3 406.337 186.663 416.122C180.319 425.42 176.844 436.376 176.669 447.631C176.495 458.887 179.628 469.945 185.681 479.436L206.831 512.636C214.308 524.236 225.863 532.612 239.215 536.108C252.566 539.603 266.743 537.966 278.945 531.518L300.717 519.918C305.006 517.651 309.805 516.522 314.655 516.639C319.504 516.756 324.243 518.115 328.417 520.586L369.743 545.244C373.349 547.392 377.49 548.476 381.685 548.368C396.161 548.016 410.459 555.582 419.905 568.68L440.125 596.704C441.725 598.932 443.453 601.118 445.241 603.21L448.813 607.39C442.721 614.366 436.515 621.376 430.193 628.42C395.285 667.278 362.643 700.55 332.267 728.236C330.767 725.631 329.097 723.127 327.267 720.742L282.409 662.262C279.305 658.223 277.007 653.624 275.641 648.716L260.841 595.604C257.647 584.305 251.585 574.024 243.245 565.759C234.905 557.495 224.569 551.527 213.241 548.436L210.013 547.56C205.374 546.299 201.111 543.926 197.595 540.646L169.971 514.812C166.443 511.511 163.408 507.718 160.961 503.552C153.754 491.284 143.15 481.364 130.43 474.987C117.711 468.611 103.418 466.051 89.2755 467.616C105.255 347.508 178.745 245.2 281.255 189ZM86.0015 516.946C86.0015 508.662 86.3015 500.448 86.8395 492.298L87.9555 492.078C98.0481 490.119 108.5 491.339 117.87 495.571C127.239 499.803 135.065 506.838 140.267 515.706C143.88 521.86 148.362 527.461 153.573 532.336L181.187 558.18C187.564 564.134 195.297 568.443 203.715 570.732L206.945 571.608C214.266 573.598 220.947 577.448 226.339 582.784C231.732 588.12 235.653 594.759 237.721 602.058L252.521 655.17C254.707 663.035 258.388 670.405 263.361 676.878L308.219 735.358C310.42 738.246 312.258 741.395 313.689 744.732C281.256 772.698 251.809 793.654 225.347 807.6C181.765 772.745 146.602 728.51 122.477 678.188C98.3512 627.866 85.8836 572.752 86.0015 516.946ZM105.401 697.746C129.031 743.756 161.407 784.716 200.717 818.332C168.091 830.274 108.413 846.264 86.3015 823.4C68.8175 805.332 75.6675 761.096 105.387 697.748L105.401 697.746ZM199.465 913.91C162.865 924.956 62.7195 944.336 33.2335 903.456C20.1635 885.336 16.4335 848.91 54.0535 775.782C50.0255 804.482 55.1175 825.876 69.2955 840.338C82.7875 854.098 102.545 858.914 123.619 858.914C172.505 858.914 228.419 832.968 229.219 832.58C288.377 803.55 362.003 740.26 448.055 644.466C508.813 576.832 560.169 510.158 585.467 476.304L598.805 488.446C598.336 488.446 597.872 488.422 597.406 488.446C587.715 488.899 578.524 492.88 571.564 499.639C564.605 506.398 560.357 515.468 559.62 525.142L556.901 560.662C556.762 562.482 557.04 564.31 557.714 566.006C558.387 567.703 559.439 569.223 560.789 570.452C562.139 571.681 563.752 572.585 565.504 573.097C567.257 573.608 569.102 573.713 570.901 573.404L606.018 567.374C615.578 565.733 624.208 560.652 630.281 553.088C636.354 545.524 639.451 536.001 638.987 526.312C638.966 525.842 638.892 525.382 638.854 524.912L647.535 532.816C597.151 620.042 459.826 815.948 199.457 913.912L199.465 913.91ZM720.37 789.51C670.642 835.855 609.358 867.961 542.947 882.459C476.536 896.957 407.447 893.314 342.929 871.91C527.188 763.73 629.302 613.228 670.307 541.35C671.638 540.475 672.781 539.345 673.671 538.024C674.56 536.704 675.177 535.219 675.487 533.658L684.508 488.126L699.485 501.762C700.96 503.086 702.741 504.022 704.667 504.486C699.727 519.032 699.105 534.698 702.878 549.589C706.651 564.481 714.657 577.961 725.927 588.4L771.128 630.062C773.343 632.105 776.247 633.24 779.261 633.24C779.449 633.24 779.639 633.24 779.829 633.226C781.417 633.15 782.974 632.76 784.41 632.078C785.846 631.396 787.132 630.435 788.193 629.252L833.794 578.42C820.302 659.372 780.421 733.591 720.362 789.52L720.37 789.51ZM841.188 534.234L778.445 604.172L742.188 570.752C731.888 561.209 725.592 548.115 724.572 534.111C723.551 520.108 727.882 506.238 736.69 495.304C766.385 483.674 794.57 468.506 820.633 450.128C822.03 464.213 828.577 477.288 839.019 486.844C845.587 492.843 849.505 501.204 849.911 510.09C850.318 518.976 847.18 527.66 841.188 534.234ZM710.483 479.318L629.733 405.8C648.584 328.605 691.198 259.278 751.561 207.6C790.22 174.343 835.272 149.343 883.948 134.138C901.692 163.041 927.312 186.283 957.802 201.138C944.339 265.014 914.445 324.273 871.071 373.059C827.697 421.845 772.345 458.471 710.483 479.318ZM962.147 176.4C940.52 164.629 922.023 147.854 908.201 127.476C927.139 122.975 946.396 119.95 965.802 118.428C966.086 137.817 964.864 157.199 962.147 176.4Z" fill="#284268"/>
<path d="M847.388 248.528C840.16 241.951 831.44 237.233 821.981 234.783C812.522 232.332 802.608 232.222 793.096 234.462C783.585 236.702 774.763 241.225 767.391 247.64C760.02 254.055 754.322 262.168 750.79 271.279C747.257 280.39 745.997 290.224 747.118 299.931C748.238 309.638 751.706 318.926 757.222 326.992C762.737 335.058 770.135 341.66 778.774 346.226C787.413 350.792 797.034 353.186 806.805 353.2C807.765 353.2 808.729 353.177 809.695 353.132C821.583 352.574 833.039 348.504 842.613 341.435C852.187 334.367 859.451 324.618 863.484 313.422C867.518 302.226 868.141 290.084 865.274 278.534C862.408 266.984 856.18 256.543 847.38 248.532L847.388 248.528ZM833.628 317.372C827.994 323.56 820.389 327.603 812.109 328.812C803.829 330.022 795.385 328.323 788.217 324.005C781.049 319.687 775.6 313.017 772.799 305.132C769.997 297.246 770.016 288.634 772.853 280.761C775.689 272.888 781.168 266.243 788.355 261.957C795.542 257.671 803.993 256.009 812.268 257.255C820.543 258.502 828.129 262.579 833.735 268.791C839.341 275.004 842.619 282.969 843.011 291.328C843.246 296.074 842.536 300.82 840.924 305.29C839.312 309.761 836.829 313.867 833.62 317.372H833.628Z" fill="#284268"/>
<path d="M377.251 771C375.393 772.484 373.522 773.963 371.639 775.438C369.202 777.423 367.641 780.285 367.291 783.409C366.942 786.533 367.832 789.67 369.771 792.144C371.71 794.618 374.543 796.233 377.66 796.641C380.777 797.049 383.929 796.218 386.439 794.326C388.374 792.807 390.297 791.286 392.208 789.764C394.696 787.779 396.294 784.888 396.65 781.725C397.006 778.563 396.092 775.388 394.107 772.9C392.123 770.412 389.232 768.813 386.069 768.457C382.906 768.101 379.732 769.015 377.244 771H377.251Z" fill="#284268"/>
<path d="M432.529 722.958C422.911 732.052 412.974 741.032 402.99 749.646C401.796 750.675 400.818 751.93 400.11 753.338C399.401 754.745 398.977 756.279 398.862 757.85C398.628 761.024 399.665 764.161 401.744 766.571C403.824 768.98 406.775 770.465 409.949 770.699C413.123 770.932 416.26 769.895 418.67 767.816C428.928 758.964 439.138 749.74 449.02 740.398C451.332 738.211 452.682 735.195 452.771 732.014C452.86 728.832 451.681 725.745 449.494 723.433C447.308 721.12 444.292 719.771 441.11 719.682C437.929 719.593 434.842 720.771 432.529 722.958Z" fill="#284268"/>
<path d="M529.417 634.952C528.195 633.957 526.789 633.213 525.279 632.762C523.769 632.311 522.185 632.162 520.617 632.323C519.049 632.484 517.529 632.953 516.142 633.702C514.755 634.451 513.53 635.465 512.535 636.688C495.135 658.078 476.627 678.83 457.535 698.37C455.311 700.646 454.081 703.712 454.118 706.895C454.154 710.077 455.453 713.115 457.729 715.34C460.006 717.564 463.072 718.794 466.255 718.757C469.437 718.721 472.475 717.422 474.699 715.146C494.299 695.088 513.299 673.786 531.159 651.832C533.167 649.362 534.111 646.197 533.784 643.031C533.457 639.865 531.887 636.959 529.417 634.952Z" fill="#284268"/>
<path d="M1193.22 160H1319.78V726.016L1307.04 835H1193.22V160ZM1620.81 592.422V601.65C1620.81 637.1 1617 669.619 1609.38 699.209C1602.06 728.799 1590.63 754.434 1575.1 776.113C1559.58 797.5 1540.24 814.199 1517.1 826.211C1494.24 837.93 1467.29 843.789 1436.24 843.789C1407.23 843.789 1382.04 837.93 1360.65 826.211C1339.56 814.492 1321.83 797.939 1307.48 776.553C1293.12 755.166 1281.55 730.117 1272.76 701.406C1263.97 672.695 1257.38 641.348 1252.98 607.363V587.148C1257.38 553.164 1263.97 521.816 1272.76 493.105C1281.55 464.395 1293.12 439.346 1307.48 417.959C1321.83 396.572 1339.56 380.02 1360.65 368.301C1381.74 356.582 1406.65 350.723 1435.36 350.723C1466.71 350.723 1493.95 356.729 1517.1 368.74C1540.53 380.459 1559.87 397.158 1575.1 418.838C1590.63 440.225 1602.06 465.713 1609.38 495.303C1617 524.6 1620.81 556.973 1620.81 592.422ZM1494.24 601.65V592.422C1494.24 573.086 1492.78 554.922 1489.85 537.93C1487.21 520.645 1482.53 505.557 1475.79 492.666C1469.05 479.482 1459.82 469.082 1448.1 461.465C1436.68 453.848 1421.88 450.039 1403.72 450.039C1386.43 450.039 1371.78 452.969 1359.77 458.828C1347.76 464.688 1337.8 472.891 1329.89 483.438C1322.27 493.984 1316.56 506.582 1312.75 521.23C1308.94 535.586 1306.6 551.406 1305.72 568.691V626.26C1306.6 649.404 1310.41 669.912 1317.14 687.783C1324.18 705.361 1334.72 719.277 1348.79 729.531C1363.14 739.492 1381.74 744.473 1404.6 744.473C1422.47 744.473 1437.26 740.957 1448.98 733.926C1460.7 726.895 1469.78 716.934 1476.23 704.043C1482.96 691.152 1487.65 676.064 1490.29 658.779C1492.93 641.201 1494.24 622.158 1494.24 601.65ZM1918.32 843.789C1881.4 843.789 1848.3 837.93 1819 826.211C1789.7 814.199 1764.8 797.646 1744.29 776.553C1724.08 755.459 1708.55 730.996 1697.71 703.164C1686.87 675.039 1681.45 645.156 1681.45 613.516V595.938C1681.45 559.902 1686.58 526.943 1696.83 497.061C1707.09 467.178 1721.73 441.25 1740.78 419.277C1760.11 397.305 1783.55 380.459 1811.09 368.74C1838.63 356.729 1869.68 350.723 1904.25 350.723C1937.95 350.723 1967.83 356.289 1993.9 367.422C2019.98 378.555 2041.8 394.375 2059.38 414.883C2077.25 435.391 2090.73 460 2099.81 488.711C2108.89 517.129 2113.43 548.77 2113.43 583.633V636.367H1735.5V551.992H1989.07V542.324C1989.07 524.746 1985.85 509.072 1979.4 495.303C1973.25 481.24 1963.87 470.107 1951.28 461.904C1938.68 453.701 1922.56 449.6 1902.94 449.6C1886.24 449.6 1871.88 453.262 1859.87 460.586C1847.86 467.91 1838.04 478.164 1830.43 491.348C1823.1 504.531 1817.54 520.059 1813.73 537.93C1810.21 555.508 1808.45 574.844 1808.45 595.938V613.516C1808.45 632.559 1811.09 650.137 1816.36 666.25C1821.93 682.363 1829.69 696.279 1839.65 707.998C1849.91 719.717 1862.21 728.799 1876.57 735.244C1891.22 741.689 1907.77 744.912 1926.23 744.912C1949.08 744.912 1970.32 740.518 1989.95 731.729C2009.87 722.646 2027.01 709.023 2041.36 690.859L2102.89 757.656C2092.93 772.012 2079.3 785.781 2062.02 798.965C2045.03 812.148 2024.52 822.988 2000.49 831.484C1976.47 839.688 1949.08 843.789 1918.32 843.789ZM2418.41 359.512V449.16H2141.56V359.512H2418.41ZM2210.11 242.178H2336.68V691.738C2336.68 705.508 2338.43 716.055 2341.95 723.379C2345.76 730.703 2351.32 735.83 2358.65 738.76C2365.97 741.396 2375.2 742.715 2386.33 742.715C2394.24 742.715 2401.28 742.422 2407.43 741.836C2413.87 740.957 2419.29 740.078 2423.69 739.199L2424.13 832.363C2413.29 835.879 2401.57 838.662 2388.97 840.713C2376.37 842.764 2362.46 843.789 2347.22 843.789C2319.39 843.789 2295.07 839.248 2274.27 830.166C2253.77 820.791 2237.95 805.85 2226.81 785.342C2215.68 764.834 2210.11 737.881 2210.11 704.482V242.178ZM2747.12 727.773V515.957C2747.12 500.723 2744.63 487.686 2739.65 476.846C2734.67 465.713 2726.91 457.07 2716.36 450.918C2706.11 444.766 2692.78 441.689 2676.37 441.689C2662.31 441.689 2650.15 444.18 2639.9 449.16C2629.64 453.848 2621.73 460.732 2616.17 469.814C2610.6 478.604 2607.82 489.004 2607.82 501.016H2481.26C2481.26 480.801 2485.94 461.611 2495.32 443.447C2504.69 425.283 2518.32 409.316 2536.19 395.547C2554.06 381.484 2575.3 370.498 2599.91 362.588C2624.81 354.678 2652.64 350.723 2683.4 350.723C2720.32 350.723 2753.13 356.875 2781.84 369.18C2810.55 381.484 2833.11 399.941 2849.52 424.551C2866.22 449.16 2874.57 479.922 2874.57 516.836V720.303C2874.57 746.377 2876.18 767.764 2879.4 784.463C2882.62 800.869 2887.31 815.225 2893.46 827.529V835H2765.58C2759.43 822.109 2754.74 805.996 2751.52 786.66C2748.59 767.031 2747.12 747.402 2747.12 727.773ZM2763.82 545.4L2764.7 617.031H2693.95C2677.25 617.031 2662.75 618.936 2650.45 622.744C2638.14 626.553 2628.03 631.973 2620.12 639.004C2612.21 645.742 2606.35 653.652 2602.54 662.734C2599.03 671.816 2597.27 681.777 2597.27 692.617C2597.27 703.457 2599.76 713.271 2604.74 722.061C2609.72 730.557 2616.9 737.295 2626.28 742.275C2635.65 746.963 2646.64 749.307 2659.23 749.307C2678.28 749.307 2694.83 745.498 2708.89 737.881C2722.96 730.264 2733.79 720.889 2741.41 709.756C2749.32 698.623 2753.42 688.076 2753.72 678.115L2787.12 731.729C2782.43 743.74 2775.98 756.191 2767.78 769.082C2759.87 781.973 2749.76 794.131 2737.46 805.557C2725.15 816.689 2710.36 825.918 2693.07 833.242C2675.79 840.273 2655.28 843.789 2631.55 843.789C2601.37 843.789 2573.98 837.783 2549.37 825.771C2525.05 813.467 2505.72 796.621 2491.36 775.234C2477.3 753.555 2470.27 728.945 2470.27 701.406C2470.27 676.504 2474.96 654.385 2484.33 635.049C2493.71 615.713 2507.48 599.453 2525.64 586.27C2544.1 572.793 2567.1 562.686 2594.63 555.947C2622.17 548.916 2654.11 545.4 2690.44 545.4H2763.82ZM3106.16 835H3024.86V309.414C3024.86 275.137 3031.01 246.279 3043.32 222.842C3055.91 199.111 3073.93 181.24 3097.37 169.229C3120.81 156.924 3148.64 150.771 3180.87 150.771C3190.24 150.771 3199.62 151.357 3208.99 152.529C3218.66 153.701 3228.03 155.459 3237.12 157.803L3232.72 224.16C3226.57 222.695 3219.54 221.67 3211.63 221.084C3204.01 220.498 3196.39 220.205 3188.78 220.205C3171.49 220.205 3156.55 223.721 3143.95 230.752C3131.65 237.49 3122.27 247.451 3115.83 260.635C3109.38 273.818 3106.16 290.078 3106.16 309.414V835ZM3207.23 359.512V421.914H2949.71V359.512H3207.23ZM3578.13 753.701V508.926C3578.13 490.176 3574.32 473.916 3566.71 460.146C3559.38 446.084 3548.25 435.244 3533.31 427.627C3518.37 420.01 3499.91 416.201 3477.94 416.201C3457.43 416.201 3439.41 419.717 3423.88 426.748C3408.65 433.779 3396.64 443.008 3387.85 454.434C3379.35 465.859 3375.1 478.164 3375.1 491.348H3293.8C3293.8 474.355 3298.2 457.51 3306.99 440.811C3315.78 424.111 3328.38 409.023 3344.78 395.547C3361.48 381.777 3381.4 370.938 3404.55 363.027C3427.98 354.824 3454.06 350.723 3482.77 350.723C3517.34 350.723 3547.81 356.582 3574.18 368.301C3600.84 380.02 3621.64 397.744 3636.58 421.475C3651.81 444.912 3659.43 474.355 3659.43 509.805V731.289C3659.43 747.109 3660.75 763.955 3663.38 781.826C3666.31 799.697 3670.56 815.078 3676.13 827.969V835H3591.31C3587.21 825.625 3583.99 813.174 3581.65 797.646C3579.3 781.826 3578.13 767.178 3578.13 753.701ZM3592.19 546.719L3593.07 603.848H3510.89C3487.75 603.848 3467.1 605.752 3448.93 609.561C3430.77 613.076 3415.53 618.496 3403.23 625.82C3390.92 633.145 3381.55 642.373 3375.1 653.506C3368.66 664.346 3365.44 677.09 3365.44 691.738C3365.44 706.68 3368.8 720.303 3375.54 732.607C3382.28 744.912 3392.39 754.727 3405.87 762.051C3419.63 769.082 3436.48 772.598 3456.4 772.598C3481.3 772.598 3503.28 767.324 3522.32 756.777C3541.36 746.23 3556.45 733.34 3567.58 718.105C3579.01 702.871 3585.16 688.076 3586.04 673.721L3620.76 712.832C3618.71 725.137 3613.14 738.76 3604.06 753.701C3594.98 768.643 3582.82 782.998 3567.58 796.768C3552.64 810.244 3534.77 821.523 3513.97 830.605C3493.46 839.395 3470.32 843.789 3444.54 843.789C3412.31 843.789 3384.04 837.49 3359.72 824.893C3335.7 812.295 3316.95 795.449 3303.47 774.355C3290.29 752.969 3283.7 729.092 3283.7 702.725C3283.7 677.236 3288.68 654.824 3298.64 635.488C3308.6 615.859 3322.96 599.6 3341.71 586.709C3360.46 573.525 3383.01 563.564 3409.38 556.826C3435.75 550.088 3465.19 546.719 3497.71 546.719H3592.19ZM3977.59 776.992C3996.93 776.992 4014.8 773.037 4031.21 765.127C4047.61 757.217 4061.09 746.377 4071.64 732.607C4082.18 718.545 4088.19 702.578 4089.65 684.707H4167C4165.53 712.832 4156.01 739.053 4138.43 763.369C4121.15 787.393 4098.44 806.875 4070.32 821.816C4042.19 836.465 4011.29 843.789 3977.59 843.789C3941.85 843.789 3910.65 837.49 3883.99 824.893C3857.62 812.295 3835.65 795.01 3818.07 773.037C3800.79 751.064 3787.75 725.869 3778.96 697.451C3770.46 668.74 3766.22 638.418 3766.22 606.484V588.027C3766.22 556.094 3770.46 525.918 3778.96 497.5C3787.75 468.789 3800.79 443.447 3818.07 421.475C3835.65 399.502 3857.62 382.217 3883.99 369.619C3910.65 357.021 3941.85 350.723 3977.59 350.723C4014.8 350.723 4047.32 358.34 4075.15 373.574C4102.98 388.516 4124.81 409.023 4140.63 435.098C4156.74 460.879 4165.53 490.176 4167 522.988H4089.65C4088.19 503.359 4082.62 485.635 4072.96 469.814C4063.58 453.994 4050.69 441.396 4034.28 432.021C4018.17 422.354 3999.27 417.52 3977.59 417.52C3952.69 417.52 3931.74 422.5 3914.75 432.461C3898.05 442.129 3884.72 455.312 3874.76 472.012C3865.09 488.418 3858.06 506.729 3853.67 526.943C3849.57 546.865 3847.52 567.227 3847.52 588.027V606.484C3847.52 627.285 3849.57 647.793 3853.67 668.008C3857.77 688.223 3864.65 706.533 3874.32 722.939C3884.28 739.346 3897.61 752.529 3914.31 762.49C3931.3 772.158 3952.4 776.992 3977.59 776.992ZM4457.48 359.512V421.914H4200.4V359.512H4457.48ZM4287.41 243.936H4368.71V717.227C4368.71 733.34 4371.2 745.498 4376.18 753.701C4381.16 761.904 4387.6 767.324 4395.51 769.961C4403.42 772.598 4411.92 773.916 4421 773.916C4427.74 773.916 4434.77 773.33 4442.1 772.158C4449.71 770.693 4455.43 769.521 4459.23 768.643L4459.67 835C4453.23 837.051 4444.73 838.955 4434.19 840.713C4423.93 842.764 4411.48 843.789 4396.83 843.789C4376.91 843.789 4358.6 839.834 4341.9 831.924C4325.2 824.014 4311.87 810.83 4301.91 792.373C4292.24 773.623 4287.41 748.428 4287.41 716.787V243.936ZM4522.52 602.529V592.422C4522.52 558.145 4527.5 526.357 4537.46 497.061C4547.42 467.471 4561.77 441.836 4580.52 420.156C4599.27 398.184 4621.98 381.191 4648.64 369.18C4675.3 356.875 4705.18 350.723 4738.29 350.723C4771.69 350.723 4801.71 356.875 4828.38 369.18C4855.33 381.191 4878.18 398.184 4896.93 420.156C4915.97 441.836 4930.47 467.471 4940.44 497.061C4950.4 526.357 4955.38 558.145 4955.38 592.422V602.529C4955.38 636.807 4950.4 668.594 4940.44 697.891C4930.47 727.188 4915.97 752.822 4896.93 774.795C4878.18 796.475 4855.47 813.467 4828.81 825.771C4802.45 837.783 4772.56 843.789 4739.17 843.789C4705.77 843.789 4675.74 837.783 4649.08 825.771C4622.42 813.467 4599.57 796.475 4580.52 774.795C4561.77 752.822 4547.42 727.188 4537.46 697.891C4527.5 668.594 4522.52 636.807 4522.52 602.529ZM4603.81 592.422V602.529C4603.81 626.26 4606.6 648.672 4612.16 669.766C4617.73 690.566 4626.08 709.023 4637.21 725.137C4648.64 741.25 4662.85 753.994 4679.84 763.369C4696.83 772.451 4716.61 776.992 4739.17 776.992C4761.43 776.992 4780.91 772.451 4797.61 763.369C4814.61 753.994 4828.67 741.25 4839.8 725.137C4850.93 709.023 4859.28 690.566 4864.85 669.766C4870.71 648.672 4873.64 626.26 4873.64 602.529V592.422C4873.64 568.984 4870.71 546.865 4864.85 526.064C4859.28 504.971 4850.79 486.367 4839.36 470.254C4828.23 453.848 4814.17 440.957 4797.17 431.582C4780.47 422.207 4760.85 417.52 4738.29 417.52C4716.02 417.52 4696.39 422.207 4679.4 431.582C4662.7 440.957 4648.64 453.848 4637.21 470.254C4626.08 486.367 4617.73 504.971 4612.16 526.064C4606.6 546.865 4603.81 568.984 4603.81 592.422ZM5138.63 434.219V835H5057.33V359.512H5136.43L5138.63 434.219ZM5287.16 356.875L5286.72 432.461C5279.99 430.996 5273.54 430.117 5267.39 429.824C5261.53 429.238 5254.79 428.945 5247.17 428.945C5228.42 428.945 5211.87 431.875 5197.52 437.734C5183.16 443.594 5171 451.797 5161.04 462.344C5151.08 472.891 5143.17 485.488 5137.31 500.137C5131.74 514.492 5128.08 530.312 5126.32 547.598L5103.47 560.781C5103.47 532.07 5106.26 505.117 5111.82 479.922C5117.68 454.727 5126.62 432.461 5138.63 413.125C5150.64 393.496 5165.88 378.262 5184.33 367.422C5203.08 356.289 5225.35 350.723 5251.13 350.723C5256.99 350.723 5263.73 351.455 5271.34 352.92C5278.96 354.092 5284.23 355.41 5287.16 356.875ZM5503.81 785.781L5636.09 359.512H5723.1L5532.38 908.389C5527.98 920.107 5522.12 932.705 5514.8 946.182C5507.77 959.951 5498.69 972.988 5487.55 985.293C5476.42 997.598 5462.95 1007.56 5447.12 1015.18C5431.6 1023.09 5412.99 1027.04 5391.31 1027.04C5384.87 1027.04 5376.67 1026.16 5366.71 1024.4C5356.74 1022.65 5349.71 1021.18 5345.61 1020.01L5345.17 954.092C5347.52 954.385 5351.18 954.678 5356.16 954.971C5361.43 955.557 5365.09 955.85 5367.14 955.85C5385.6 955.85 5401.28 953.359 5414.17 948.379C5427.06 943.691 5437.9 935.635 5446.69 924.209C5455.77 913.076 5463.53 897.695 5469.98 878.066L5503.81 785.781ZM5406.7 359.512L5530.18 728.652L5551.28 814.346L5492.83 844.229L5317.93 359.512H5406.7Z" fill="black"/>
</svg>
