<svg width="1091" height="962" viewBox="0 0 1091 962" fill="none" xmlns="http://www.w3.org/2000/svg">
<path d="M994.345 485.316L1002.65 492.625V481.563V467.109C1002.65 444.686 1021.22 426.34 1044.33 426.34C1067.44 426.34 1086 444.686 1086 467.112L1086 686.571C1086 835.83 962.571 957 810.104 957H481.869C284.686 957 125 800.282 125 607.174L125 285.224C125 168.176 211.35 70.8345 325.158 51.134L329.306 50.4161V46.2072V21.1164C329.306 16.8742 331.023 12.7853 334.114 9.75497C337.208 6.72137 341.424 5 345.841 5C350.258 5 354.475 6.72137 357.569 9.75497C360.659 12.7853 362.377 16.8741 362.377 21.1164V27.5803V39.4839L370.877 31.1508L386.671 15.6669C386.678 15.6598 386.686 15.6527 386.693 15.6457C389.8 12.69 393.986 11.0327 398.355 11.0609C402.735 11.0892 406.908 12.8084 409.976 15.8165C413.04 18.8214 414.756 22.8681 414.784 27.0747C414.813 31.2712 413.159 35.3294 410.15 38.3703C410.143 38.3777 410.135 38.385 410.128 38.3924L406.047 42.3939L399.03 49.2735L408.722 50.8954C523.192 70.0533 610.223 167.712 610.223 285.221L610.223 411.139V416.139H615.223L810.107 416.139C880.941 416.139 945.498 442.323 994.345 485.316Z" fill="#DF6B00" stroke="#797979" stroke-width="10"/>
<path d="M74.4369 302L271.56 302C309.998 302 340.997 332.535 341 370.003C341 407.464 309.999 438 271.56 438L74.4369 438C35.9949 438 5 407.464 5 370.003C5 332.535 35.9951 302 74.4369 302Z" fill="#FDD400" stroke="#797979" stroke-width="10"/>
<path d="M312.831 222.16C309.738 219.066 308 214.87 308 210.496C308 206.121 309.738 201.925 312.831 198.831C315.925 195.738 320.121 194 324.496 194C328.87 194 333.066 195.738 336.16 198.831C339.253 201.925 340.991 206.121 340.991 210.496C340.991 214.87 339.253 219.066 336.16 222.16C333.066 225.253 328.87 226.991 324.496 226.991C320.121 226.991 315.925 225.253 312.831 222.16Z" stroke="white" stroke-width="10"/>
</svg>
