<svg width="6393" height="1127" viewBox="0 0 6393 1127" fill="none" xmlns="http://www.w3.org/2000/svg">
<path d="M994.345 485.316L1002.65 492.625V481.563V467.109C1002.65 444.686 1021.22 426.34 1044.33 426.34C1067.44 426.34 1086 444.686 1086 467.112L1086 686.571C1086 835.83 962.571 957 810.104 957H481.869C284.686 957 125 800.282 125 607.174L125 285.224C125 168.176 211.35 70.8345 325.158 51.134L329.306 50.4161V46.2072V21.1164C329.306 16.8742 331.023 12.7853 334.114 9.75497C337.208 6.72137 341.424 5 345.841 5C350.258 5 354.475 6.72137 357.569 9.75497C360.659 12.7853 362.377 16.8741 362.377 21.1164V27.5803V39.4839L370.877 31.1508L386.671 15.6669C386.678 15.6598 386.686 15.6527 386.693 15.6457C389.8 12.69 393.986 11.0327 398.355 11.0609C402.735 11.0892 406.908 12.8084 409.976 15.8165C413.04 18.8214 414.756 22.8681 414.784 27.0747C414.813 31.2712 413.159 35.3294 410.15 38.3703C410.143 38.3777 410.135 38.385 410.128 38.3924L406.047 42.3939L399.03 49.2735L408.722 50.8954C523.192 70.0533 610.223 167.712 610.223 285.221L610.223 411.139V416.139H615.223L810.107 416.139C880.941 416.139 945.498 442.323 994.345 485.316Z" fill="#DF6B00" stroke="#797979" stroke-width="10"/>
<path d="M74.4369 302L271.56 302C309.998 302 340.997 332.535 341 370.003C341 407.464 309.999 438 271.56 438L74.4369 438C35.9949 438 5 407.464 5 370.003C5 332.535 35.9951 302 74.4369 302Z" fill="#FDD400" stroke="#797979" stroke-width="10"/>
<path d="M1585 909C1520.33 909 1469 885 1431 837C1393.67 789 1375 723.333 1375 640C1375 589.333 1383.67 545.333 1401 508C1418.33 470 1443 440.667 1475 420C1507 399.333 1544.33 389 1587 389C1648.33 389 1697.67 414.667 1735 466H1737V157H1821V773C1821 835 1822 877 1824 899H1746C1744.67 883 1744 856.667 1744 820H1742C1726.67 846.667 1704.67 868.333 1676 885C1647.33 901 1617 909 1585 909ZM1597 841C1639.67 841 1673.33 828.333 1698 803C1723.33 777 1736 742.333 1736 699V608C1736 561.333 1723.33 524 1698 496C1672.67 468 1639 454 1597 454C1554.33 454 1520.67 470.667 1496 504C1472 536.667 1460 582.667 1460 642C1460 704 1472 752.667 1496 788C1520.67 823.333 1554.33 841 1597 841ZM2068.99 909C2011.66 909 1967.99 890.333 1937.99 853C1908.66 815.667 1893.99 760.667 1893.99 688V399H1978.99V689C1978.99 790.333 2014.99 841 2086.99 841C2114.99 841 2140.33 834 2162.99 820C2185.66 805.333 2203.33 785.333 2215.99 760C2228.66 734 2234.99 705 2234.99 673V399H2319.99V793C2319.99 826.333 2322.99 861.667 2328.99 899H2250.99C2244.99 869.667 2241.66 840 2240.99 810H2237.99C2223.33 840.667 2200.66 865 2169.99 883C2139.99 900.333 2106.33 909 2068.99 909ZM2602.75 909C2528.75 909 2471.08 886.333 2429.75 841C2389.08 795 2368.75 731 2368.75 649C2368.75 567 2389.08 503.333 2429.75 458C2471.08 412 2528.75 389 2602.75 389C2644.75 389 2681.75 397.333 2713.75 414C2746.42 430 2772.08 453.333 2790.75 484L2739.75 530C2725.08 507.333 2705.75 489.667 2681.75 477C2658.42 463.667 2633.08 457 2605.75 457C2558.42 457 2521.08 474 2493.75 508C2467.08 541.333 2453.75 588.333 2453.75 649C2453.75 709 2467.08 756 2493.75 790C2521.08 824 2558.42 841 2605.75 841C2633.08 841 2658.42 834.667 2681.75 822C2705.75 808.667 2725.08 790.667 2739.75 768L2790.75 814C2772.08 844.667 2746.42 868.333 2713.75 885C2681.75 901 2644.75 909 2602.75 909ZM3141.41 899L2976.41 648L2903.41 721V899H2818.41V157H2903.41V619L3122.41 399H3224.41L3033.41 591L3238.41 899H3141.41ZM3372.71 909C3300.71 909 3264.71 866.667 3264.71 782V157H3349.71V781C3349.71 804.333 3353.38 821 3360.71 831C3368.71 840.333 3382.04 845 3400.71 845C3415.38 845 3432.04 841 3450.71 833L3463.71 884C3438.38 900.667 3408.04 909 3372.71 909ZM3557.73 312C3539.06 312 3524.39 307 3513.73 297C3503.06 287 3497.73 273.333 3497.73 256C3497.73 238.667 3503.06 225 3513.73 215C3524.39 204.333 3539.06 199 3557.73 199C3576.39 199 3591.06 204.333 3601.73 215C3613.06 225 3618.73 238.667 3618.73 256C3618.73 273.333 3613.06 287 3601.73 297C3591.06 307 3576.39 312 3557.73 312ZM3515.73 399H3600.73V899H3515.73V399ZM3690.84 525C3690.84 461.667 3689.51 419.667 3686.84 399H3765.84C3768.51 421 3769.84 450.667 3769.84 488H3772.84C3787.51 457.333 3809.84 433.333 3839.84 416C3870.51 398 3904.51 389 3941.84 389C4000.51 389 4044.51 408 4073.84 446C4103.18 484 4117.84 540.667 4117.84 616V899H4032.84V615C4032.84 561.667 4023.84 522 4005.84 496C3987.84 470 3960.51 457 3923.84 457C3895.84 457 3870.51 464.333 3847.84 479C3825.18 493 3807.51 513 3794.84 539C3782.18 564.333 3775.84 593 3775.84 625V899H3690.84V525ZM4609.67 399V883C4609.67 963 4590.01 1023.67 4550.67 1065C4511.34 1106.33 4453.67 1127 4377.67 1127C4344.34 1127 4311.67 1123 4279.67 1115C4248.34 1107 4220.01 1095.67 4194.67 1081L4222.67 1019C4272.67 1043 4323.34 1055 4374.67 1055C4478.67 1055 4530.67 993.333 4530.67 870V824C4517.34 849.333 4497.01 869.333 4469.67 884C4442.34 898.667 4411.34 906 4376.67 906C4310.67 906 4258.67 882.333 4220.67 835C4182.67 787.667 4163.67 723 4163.67 641C4163.67 562.333 4182.34 500.667 4219.67 456C4257.01 411.333 4308.34 389 4373.67 389C4408.34 389 4438.67 396 4464.67 410C4491.34 424 4512.34 444.333 4527.67 471H4529.67L4539.67 399H4609.67ZM4524.67 616C4524.67 565.333 4512.67 525.667 4488.67 497C4464.67 468.333 4431.34 454 4388.67 454C4345.34 454 4311.01 471 4285.67 505C4261.01 538.333 4248.67 584.333 4248.67 643C4248.67 704.333 4261.01 752.333 4285.67 787C4310.34 821 4344.67 838 4388.67 838C4431.34 838 4464.67 825.333 4488.67 800C4512.67 774 4524.67 738 4524.67 692V616ZM4991.85 909C4919.85 909 4883.85 866.667 4883.85 782V157H4968.85V781C4968.85 804.333 4972.52 821 4979.85 831C4987.85 840.333 5001.18 845 5019.85 845C5034.52 845 5051.18 841 5069.85 833L5082.85 884C5057.52 900.667 5027.18 909 4991.85 909ZM5262.87 909C5213.53 909 5173.2 894.667 5141.87 866C5110.53 837.333 5094.87 800.333 5094.87 755C5094.87 705 5113.53 666.333 5150.87 639C5188.87 611.667 5242.53 598 5311.87 598H5414.87V572C5414.87 534.667 5404.87 506.333 5384.87 487C5365.53 467 5337.2 457 5299.87 457C5269.87 457 5242.2 463.333 5216.87 476C5192.2 488 5171.53 505.667 5154.87 529L5111.87 477C5134.53 448.333 5162.2 426.667 5194.87 412C5227.53 396.667 5263.87 389 5303.87 389C5366.53 389 5414.87 404.333 5448.87 435C5482.87 465.667 5499.87 509.667 5499.87 567V802C5499.87 828 5503.87 860.333 5511.87 899H5437.87C5431.87 883.667 5427.53 860.333 5424.87 829H5422.87C5404.2 855 5381.2 875 5353.87 889C5326.53 902.333 5296.2 909 5262.87 909ZM5275.87 842C5301.2 842 5324.53 837.333 5345.87 828C5367.2 818 5383.87 804.667 5395.87 788C5408.53 771.333 5414.87 753 5414.87 733V659H5308.87C5266.87 659 5234.53 667.333 5211.87 684C5189.2 700.667 5177.87 724.333 5177.87 755C5177.87 781.667 5186.53 803 5203.87 819C5221.87 834.333 5245.87 842 5275.87 842ZM5816.54 909C5785.21 909 5754.87 901 5725.54 885C5696.21 868.333 5674.21 846.667 5659.54 820H5657.54C5658.21 841.333 5657.54 867.667 5655.54 899H5577.54C5579.54 877 5580.54 835 5580.54 773V157H5665.54V466H5667.54C5700.87 414.667 5751.21 389 5818.54 389C5882.54 389 5933.21 411.667 5970.54 457C6007.87 501.667 6026.54 562.667 6026.54 640C6026.54 723.333 6007.54 789 5969.54 837C5932.21 885 5881.21 909 5816.54 909ZM5804.54 841C5847.21 841 5880.54 823.333 5904.54 788C5929.21 752.667 5941.54 704 5941.54 642C5941.54 582.667 5929.21 536.667 5904.54 504C5880.54 470.667 5847.21 454 5804.54 454C5763.21 454 5729.54 468.333 5703.54 497C5678.21 525 5665.54 562 5665.54 608V699C5665.54 742.333 5677.87 777 5702.54 803C5727.87 828.333 5761.87 841 5804.54 841ZM6210.53 909C6173.2 909 6139.2 901.333 6108.53 886C6078.53 870.667 6057.2 850.333 6044.53 825L6099.53 787C6110.86 805 6126.53 819 6146.53 829C6166.53 839 6188.2 844 6211.53 844C6239.53 844 6262.53 836 6280.53 820C6299.2 803.333 6308.53 782.667 6308.53 758C6308.53 738 6301.2 721.333 6286.53 708C6271.86 694.667 6245.86 681 6208.53 667C6151.86 646.333 6111.86 624.667 6088.53 602C6065.86 579.333 6054.53 551.333 6054.53 518C6054.53 479.333 6069.86 448.333 6100.53 425C6131.2 401 6171.86 389 6222.53 389C6255.2 389 6284.86 396 6311.53 410C6338.86 424 6359.86 443.333 6374.53 468L6322.53 506C6299.2 471.333 6265.86 454 6222.53 454C6197.86 454 6177.53 459.667 6161.53 471C6146.2 482.333 6138.53 497 6138.53 515C6138.53 533 6146.53 548.333 6162.53 561C6178.53 573 6208.2 587.333 6251.53 604C6302.86 623.333 6339.2 644.667 6360.53 668C6381.86 690.667 6392.53 719.667 6392.53 755C6392.53 801.667 6375.86 839 6342.53 867C6309.2 895 6265.2 909 6210.53 909Z" fill="black"/>
<path d="M312.831 222.16C309.738 219.066 308 214.87 308 210.496C308 206.121 309.738 201.925 312.831 198.831C315.925 195.738 320.121 194 324.496 194C328.87 194 333.066 195.738 336.16 198.831C339.253 201.925 340.991 206.121 340.991 210.496C340.991 214.87 339.253 219.066 336.16 222.16C333.066 225.253 328.87 226.991 324.496 226.991C320.121 226.991 315.925 225.253 312.831 222.16Z" stroke="white" stroke-width="10"/>
</svg>
