<svg width="6938" height="1172" viewBox="0 0 6938 1172" fill="none" xmlns="http://www.w3.org/2000/svg">
<path d="M994.345 590.316L1002.65 597.625V586.563V572.109C1002.65 549.686 1021.22 531.34 1044.33 531.34C1067.44 531.34 1086 549.686 1086 572.112L1086 791.571C1086 940.83 962.571 1062 810.104 1062H481.869C284.686 1062 125 905.282 125 712.174L125 390.224C125 273.176 211.35 175.835 325.158 156.134L329.306 155.416V151.207V126.116C329.306 121.874 331.023 117.785 334.114 114.755C337.208 111.721 341.424 110 345.841 110C350.258 110 354.475 111.721 357.569 114.755C360.659 117.785 362.377 121.874 362.377 126.116V132.58V144.484L370.877 136.151L386.671 120.667C386.678 120.66 386.686 120.653 386.693 120.646C389.8 117.69 393.986 116.033 398.355 116.061C402.735 116.089 406.908 117.808 409.976 120.816C413.04 123.821 414.756 127.868 414.784 132.075C414.813 136.271 413.159 140.329 410.15 143.37C410.143 143.378 410.135 143.385 410.128 143.392L406.047 147.394L399.03 154.273L408.722 155.895C523.192 175.053 610.223 272.712 610.223 390.221L610.223 516.139V521.139H615.223L810.107 521.139C880.941 521.139 945.498 547.323 994.345 590.316Z" fill="#DF6B00" stroke="white" stroke-width="10"/>
<path d="M74.4369 407L271.56 407C309.998 407 340.997 437.535 341 475.003C341 512.464 309.999 543 271.56 543H74.4369C35.9949 543 5 512.464 5 475.003C5 437.535 35.9951 407 74.4369 407Z" fill="#FDD400" stroke="#797979" stroke-width="10"/>
<path d="M312.831 327.16C309.738 324.066 308 319.87 308 315.496C308 311.121 309.738 306.925 312.831 303.831C315.925 300.738 320.121 299 324.496 299C328.87 299 333.066 300.738 336.16 303.831C339.253 306.925 340.991 311.121 340.991 315.496C340.991 319.87 339.253 324.066 336.16 327.16C333.066 330.253 328.87 331.991 324.496 331.991C320.121 331.991 315.925 330.253 312.831 327.16Z" stroke="white" stroke-width="10"/>
<path d="M1597.7 812.766V178H1739.3V928H1611.86L1597.7 812.766ZM1263.71 670.188V659.934C1263.71 619.569 1268.27 582.948 1277.39 550.07C1286.5 516.867 1299.85 488.384 1317.43 464.621C1335 440.858 1356.65 422.466 1382.37 409.445C1408.08 396.424 1437.38 389.914 1470.26 389.914C1501.18 389.914 1528.2 396.424 1551.31 409.445C1574.75 422.466 1594.61 441.021 1610.88 465.109C1627.48 488.872 1640.83 517.03 1650.92 549.582C1661.01 581.809 1668.34 617.128 1672.89 655.539V678C1668.34 714.784 1661.01 748.964 1650.92 780.539C1640.83 812.115 1627.48 839.784 1610.88 863.547C1594.61 886.984 1574.75 905.214 1551.31 918.234C1527.88 931.255 1500.53 937.766 1469.28 937.766C1436.4 937.766 1407.11 931.092 1381.39 917.746C1356 904.4 1334.52 885.682 1316.94 861.594C1299.68 837.505 1286.5 809.185 1277.39 776.633C1268.27 744.081 1263.71 708.599 1263.71 670.188ZM1404.34 659.934V670.188C1404.34 691.997 1405.97 712.342 1409.22 731.223C1412.8 750.103 1418.5 766.867 1426.31 781.516C1434.45 795.839 1444.87 807.069 1457.56 815.207C1470.58 823.02 1486.37 826.926 1504.93 826.926C1529.01 826.926 1548.87 821.555 1564.5 810.812C1580.12 799.745 1592 784.608 1600.14 765.402C1608.6 746.197 1613.49 724.061 1614.79 698.996V635.031C1613.81 614.523 1610.88 596.132 1606 579.855C1601.44 563.254 1594.61 549.094 1585.49 537.375C1576.7 525.656 1565.64 516.542 1552.29 510.031C1539.27 503.521 1523.81 500.266 1505.9 500.266C1487.67 500.266 1472.05 504.497 1459.03 512.961C1446.01 521.099 1435.43 532.329 1427.29 546.652C1419.48 560.975 1413.62 577.902 1409.71 597.434C1406.13 616.639 1404.34 637.473 1404.34 659.934ZM2161.66 801.535V399.68H2302.29V928H2169.96L2161.66 801.535ZM2177.29 693.137L2218.79 692.16C2218.79 727.316 2214.72 760.031 2206.59 790.305C2198.45 820.253 2186.24 846.294 2169.96 868.43C2153.69 890.24 2133.18 907.329 2108.44 919.699C2083.7 931.743 2054.57 937.766 2021.04 937.766C1995.32 937.766 1971.56 934.185 1949.75 927.023C1928.27 919.536 1909.71 907.98 1894.09 892.355C1878.79 876.405 1866.74 856.06 1857.95 831.32C1849.49 806.255 1845.26 776.145 1845.26 740.988V399.68H1985.88V741.965C1985.88 757.59 1987.67 770.773 1991.25 781.516C1995.16 792.258 2000.53 801.047 2007.37 807.883C2014.2 814.719 2022.18 819.602 2031.29 822.531C2040.73 825.461 2051.15 826.926 2062.54 826.926C2091.51 826.926 2114.3 821.066 2130.9 809.348C2147.83 797.629 2159.71 781.678 2166.55 761.496C2173.71 740.988 2177.29 718.202 2177.29 693.137ZM2627.97 827.902C2645.23 827.902 2660.52 824.647 2673.87 818.137C2687.22 811.301 2697.63 801.861 2705.12 789.816C2712.93 777.447 2717 762.961 2717.33 746.359H2849.65C2849.33 783.469 2839.4 816.509 2819.87 845.48C2800.34 874.126 2774.13 896.75 2741.25 913.352C2708.38 929.628 2671.59 937.766 2630.9 937.766C2589.89 937.766 2554.08 930.93 2523.48 917.258C2493.21 903.586 2467.98 884.706 2447.8 860.617C2427.61 836.203 2412.48 807.883 2402.39 775.656C2392.3 743.104 2387.25 708.273 2387.25 671.164V657.004C2387.25 619.569 2392.3 584.738 2402.39 552.512C2412.48 519.96 2427.61 491.639 2447.8 467.551C2467.98 443.137 2493.21 424.094 2523.48 410.422C2553.75 396.75 2589.24 389.914 2629.93 389.914C2673.22 389.914 2711.14 398.215 2743.7 414.816C2776.57 431.418 2802.29 455.181 2820.84 486.105C2839.72 516.704 2849.33 553 2849.65 594.992H2717.33C2717 577.414 2713.26 561.464 2706.1 547.141C2699.26 532.818 2689.17 521.424 2675.82 512.961C2662.8 504.172 2646.69 499.777 2627.48 499.777C2606.98 499.777 2590.21 504.172 2577.19 512.961C2564.17 521.424 2554.08 533.143 2546.92 548.117C2539.76 562.766 2534.71 579.53 2531.78 598.41C2529.18 616.965 2527.88 636.496 2527.88 657.004V671.164C2527.88 691.672 2529.18 711.366 2531.78 730.246C2534.39 749.126 2539.27 765.891 2546.43 780.539C2553.92 795.188 2564.17 806.743 2577.19 815.207C2590.21 823.671 2607.14 827.902 2627.97 827.902ZM3071.82 177.512V928H2931.2V177.512H3071.82ZM3404.83 399.68L3175.34 661.398L3052.29 785.91L3001.02 684.348L3098.68 560.324L3235.88 399.68H3404.83ZM3258.83 928L3102.58 683.859L3199.75 598.898L3420.94 928H3258.83ZM3613.81 178V928H3472.7V178H3613.81ZM3878.46 399.68V928H3737.35V399.68H3878.46ZM3728.56 261.984C3728.56 241.477 3735.72 224.549 3750.04 211.203C3764.37 197.857 3783.57 191.184 3807.66 191.184C3831.42 191.184 3850.47 197.857 3864.79 211.203C3879.44 224.549 3886.76 241.477 3886.76 261.984C3886.76 282.492 3879.44 299.419 3864.79 312.766C3850.47 326.112 3831.42 332.785 3807.66 332.785C3783.57 332.785 3764.37 326.112 3750.04 312.766C3735.72 299.419 3728.56 282.492 3728.56 261.984ZM4132.37 512.473V928H3991.74V399.68H4123.58L4132.37 512.473ZM4111.86 645.285H4073.77C4073.77 606.223 4078.82 571.066 4088.91 539.816C4099 508.241 4113.16 481.385 4131.39 459.25C4149.62 436.789 4171.27 419.699 4196.33 407.98C4221.72 395.936 4250.04 389.914 4281.29 389.914C4306.03 389.914 4328.66 393.495 4349.16 400.656C4369.67 407.818 4387.25 419.211 4401.9 434.836C4416.87 450.461 4428.27 471.132 4436.08 496.848C4444.22 522.564 4448.29 553.977 4448.29 591.086V928H4306.68V590.598C4306.68 567.16 4303.43 548.931 4296.92 535.91C4290.41 522.889 4280.8 513.775 4268.11 508.566C4255.74 503.033 4240.44 500.266 4222.21 500.266C4203.33 500.266 4186.89 504.009 4172.89 511.496C4159.22 518.983 4147.83 529.4 4138.71 542.746C4129.93 555.767 4123.25 571.066 4118.7 588.645C4114.14 606.223 4111.86 625.103 4111.86 645.285ZM4889.69 399.68H5017.13V910.422C5017.13 958.599 5006.39 999.452 4984.91 1032.98C4963.75 1066.83 4934.12 1092.39 4896.04 1109.64C4857.95 1127.22 4813.68 1136.01 4763.23 1136.01C4741.09 1136.01 4717.65 1133.08 4692.91 1127.22C4668.5 1121.36 4645.06 1112.24 4622.6 1099.88C4600.47 1087.51 4581.91 1071.88 4566.94 1053L4628.95 969.992C4645.23 988.872 4664.11 1003.52 4685.59 1013.94C4707.07 1024.68 4730.84 1030.05 4756.88 1030.05C4782.27 1030.05 4803.75 1025.33 4821.33 1015.89C4838.91 1006.78 4852.42 993.267 4861.86 975.363C4871.3 957.785 4876.02 936.464 4876.02 911.398V521.75L4889.69 399.68ZM4534.22 670.188V659.934C4534.22 619.569 4539.11 582.948 4548.87 550.07C4558.96 516.867 4573.12 488.384 4591.35 464.621C4609.91 440.858 4632.37 422.466 4658.73 409.445C4685.1 396.424 4714.89 389.914 4748.09 389.914C4783.25 389.914 4812.71 396.424 4836.47 409.445C4860.23 422.466 4879.76 441.021 4895.06 465.109C4910.36 488.872 4922.24 517.03 4930.71 549.582C4939.5 581.809 4946.33 617.128 4951.21 655.539V678C4946.33 714.784 4939.01 748.964 4929.24 780.539C4919.48 812.115 4906.62 839.784 4890.67 863.547C4874.72 886.984 4854.86 905.214 4831.1 918.234C4807.66 931.255 4779.67 937.766 4747.11 937.766C4714.56 937.766 4685.1 931.092 4658.73 917.746C4632.69 904.4 4610.39 885.682 4591.84 861.594C4573.29 837.505 4558.96 809.185 4548.87 776.633C4539.11 744.081 4534.22 708.599 4534.22 670.188ZM4674.85 659.934V670.188C4674.85 691.997 4676.96 712.342 4681.2 731.223C4685.43 750.103 4691.94 766.867 4700.73 781.516C4709.84 795.839 4721.07 807.069 4734.42 815.207C4748.09 823.02 4764.2 826.926 4782.76 826.926C4808.47 826.926 4829.47 821.555 4845.75 810.812C4862.02 799.745 4874.23 784.608 4882.37 765.402C4890.51 746.197 4895.23 724.061 4896.53 698.996V635.031C4895.88 614.523 4893.11 596.132 4888.23 579.855C4883.34 563.254 4876.51 549.094 4867.72 537.375C4858.93 525.656 4847.54 516.542 4833.54 510.031C4819.54 503.521 4802.94 500.266 4783.73 500.266C4765.18 500.266 4749.07 504.497 4735.39 512.961C4722.05 521.099 4710.82 532.329 4701.7 546.652C4692.91 560.975 4686.24 577.902 4681.68 597.434C4677.13 616.639 4674.85 637.473 4674.85 659.934ZM5238.81 178V928H5147.99V178H5238.81ZM5695.36 837.668V565.695C5695.36 544.862 5691.12 526.796 5682.66 511.496C5674.52 495.871 5662.15 483.827 5645.55 475.363C5628.95 466.9 5608.44 462.668 5584.03 462.668C5561.24 462.668 5541.22 466.574 5523.97 474.387C5507.04 482.199 5493.7 492.453 5483.93 505.148C5474.49 517.844 5469.77 531.516 5469.77 546.164H5379.44C5379.44 527.284 5384.32 508.566 5394.09 490.012C5403.85 471.457 5417.85 454.693 5436.08 439.719C5454.63 424.419 5476.77 412.375 5502.48 403.586C5528.53 394.471 5557.5 389.914 5589.4 389.914C5627.81 389.914 5661.66 396.424 5690.96 409.445C5720.58 422.466 5743.7 442.16 5760.3 468.527C5777.22 494.569 5785.69 527.284 5785.69 566.672V812.766C5785.69 830.344 5787.15 849.061 5790.08 868.918C5793.34 888.775 5798.06 905.865 5804.24 920.188V928H5710C5705.45 917.583 5701.87 903.749 5699.26 886.496C5696.66 868.918 5695.36 852.642 5695.36 837.668ZM5710.98 607.688L5711.96 671.164H5620.65C5594.93 671.164 5571.98 673.28 5551.8 677.512C5531.62 681.418 5514.69 687.44 5501.02 695.578C5487.35 703.716 5476.93 713.97 5469.77 726.34C5462.61 738.384 5459.03 752.544 5459.03 768.82C5459.03 785.422 5462.77 800.559 5470.26 814.23C5477.74 827.902 5488.98 838.807 5503.95 846.945C5519.25 854.758 5537.97 858.664 5560.1 858.664C5587.77 858.664 5612.18 852.805 5633.34 841.086C5654.5 829.367 5671.27 815.044 5683.64 798.117C5696.33 781.19 5703.17 764.751 5704.14 748.801L5742.72 792.258C5740.44 805.93 5734.26 821.066 5724.16 837.668C5714.07 854.27 5700.56 870.22 5683.64 885.52C5667.04 900.493 5647.18 913.026 5624.07 923.117C5601.28 932.883 5575.56 937.766 5546.92 937.766C5511.11 937.766 5479.7 930.767 5452.68 916.77C5425.99 902.772 5405.15 884.055 5390.18 860.617C5375.53 836.854 5368.21 810.324 5368.21 781.027C5368.21 752.707 5373.74 727.805 5384.81 706.32C5395.88 684.51 5411.83 666.444 5432.66 652.121C5453.49 637.473 5478.56 626.405 5507.86 618.918C5537.15 611.431 5569.87 607.688 5606 607.688H5710.98ZM5927.29 178H6018.11V825.461L6010.3 928H5927.29V178ZM6375.04 659.445V669.699C6375.04 708.111 6370.49 743.755 6361.37 776.633C6352.26 809.185 6338.91 837.505 6321.33 861.594C6303.75 885.682 6282.27 904.4 6256.88 917.746C6231.49 931.092 6202.35 937.766 6169.48 937.766C6135.95 937.766 6106.49 932.069 6081.1 920.676C6056.03 908.957 6034.87 892.193 6017.62 870.383C6000.37 848.573 5986.53 822.206 5976.12 791.281C5966.03 760.357 5959.03 725.526 5955.12 686.789V641.867C5959.03 602.805 5966.03 567.811 5976.12 536.887C5986.53 505.962 6000.37 479.595 6017.62 457.785C6034.87 435.65 6056.03 418.885 6081.1 407.492C6106.16 395.773 6135.3 389.914 6168.5 389.914C6201.7 389.914 6231.16 396.424 6256.88 409.445C6282.6 422.141 6304.08 440.37 6321.33 464.133C6338.91 487.896 6352.26 516.379 6361.37 549.582C6370.49 582.46 6375.04 619.081 6375.04 659.445ZM6284.22 669.699V659.445C6284.22 633.078 6281.78 608.339 6276.9 585.227C6272.02 561.789 6264.2 541.281 6253.46 523.703C6242.72 505.799 6228.56 491.802 6210.98 481.711C6193.4 471.294 6171.76 466.086 6146.04 466.086C6123.25 466.086 6103.4 469.992 6086.47 477.805C6069.87 485.617 6055.71 496.197 6043.99 509.543C6032.27 522.564 6022.67 537.538 6015.18 554.465C6008.02 571.066 6002.65 588.319 5999.07 606.223V723.898C6004.27 746.685 6012.74 768.658 6024.46 789.816C6036.5 810.65 6052.45 827.74 6072.31 841.086C6092.49 854.432 6117.39 861.105 6147.02 861.105C6171.43 861.105 6192.26 856.223 6209.52 846.457C6227.09 836.366 6241.25 822.531 6252 804.953C6263.06 787.375 6271.2 767.03 6276.41 743.918C6281.62 720.806 6284.22 696.066 6284.22 669.699ZM6796.92 787.863C6796.92 774.842 6793.99 762.798 6788.13 751.73C6782.6 740.337 6771.04 730.083 6753.46 720.969C6736.21 711.529 6710.17 703.391 6675.34 696.555C6646.04 690.37 6619.51 683.046 6595.75 674.582C6572.31 666.118 6552.29 655.865 6535.69 643.82C6519.41 631.776 6506.88 617.616 6498.09 601.34C6489.3 585.064 6484.91 566.021 6484.91 544.211C6484.91 523.378 6489.46 503.684 6498.58 485.129C6508.02 466.574 6521.2 450.135 6538.13 435.812C6555.38 421.49 6576.05 410.259 6600.14 402.121C6624.23 393.983 6651.08 389.914 6680.71 389.914C6723.02 389.914 6759.16 397.401 6789.11 412.375C6819.05 427.349 6842 447.368 6857.95 472.434C6873.9 497.173 6881.88 524.68 6881.88 554.953H6791.55C6791.55 540.305 6787.15 526.145 6778.36 512.473C6769.9 498.475 6757.37 486.919 6740.77 477.805C6724.49 468.69 6704.47 464.133 6680.71 464.133C6655.64 464.133 6635.3 468.039 6619.67 475.852C6604.37 483.339 6593.14 492.941 6585.98 504.66C6579.14 516.379 6575.73 528.749 6575.73 541.77C6575.73 551.535 6577.35 560.324 6580.61 568.137C6584.19 575.624 6590.38 582.622 6599.16 589.133C6607.95 595.318 6620.32 601.177 6636.27 606.711C6652.22 612.245 6672.57 617.779 6697.31 623.312C6740.6 633.078 6776.25 644.797 6804.24 658.469C6832.24 672.141 6853.07 688.905 6866.74 708.762C6880.41 728.618 6887.25 752.707 6887.25 781.027C6887.25 804.139 6882.37 825.298 6872.6 844.504C6863.16 863.71 6849.33 880.311 6831.1 894.309C6813.19 907.98 6791.71 918.723 6766.64 926.535C6741.9 934.022 6714.07 937.766 6683.15 937.766C6636.6 937.766 6597.21 929.465 6564.98 912.863C6532.76 896.262 6508.34 874.777 6491.74 848.41C6475.14 822.043 6466.84 794.211 6466.84 764.914H6557.66C6558.96 789.654 6566.12 809.348 6579.14 823.996C6592.17 838.319 6608.12 848.573 6627 854.758C6645.88 860.617 6664.59 863.547 6683.15 863.547C6707.89 863.547 6728.56 860.292 6745.16 853.781C6762.09 847.271 6774.95 838.319 6783.73 826.926C6792.52 815.533 6796.92 802.512 6796.92 787.863Z" fill="black"/>
</svg>
