<svg width="268" height="60" viewBox="0 0 134 30" fill="none" xmlns="http://www.w3.org/2000/svg">
<path d="M42.4627 24.3862V14.753C42.4627 13.2373 43.4395 11.8563 45.2246 11.8563C47.0772 11.8563 47.9192 13.1025 47.9192 14.6856V24.3862H52.9716V14.7193C52.9716 13.2373 53.9484 11.8563 55.7673 11.8563C57.5862 11.8563 58.4282 13.1025 58.4282 14.6856V24.3862H63.3796V13.5404C63.3796 8.99326 60.3481 7.14072 57.182 7.14072C54.9252 7.14072 53.3085 7.88174 51.9948 9.76796C51.1528 8.11751 49.435 7.14072 47.0435 7.14072C45.2246 7.14072 43.0689 8.08383 42.2269 9.56587V7.64596H37.3429V24.3862H42.4627Z" fill="#3E15B4"/>
<path d="M66.6928 19.7717C66.6928 22.4326 68.8148 24.8578 72.4862 24.8578C74.7093 24.8578 76.3261 23.9147 77.2018 22.5C77.2018 23.6452 77.3365 24.2515 77.3702 24.3862H81.9848C81.9511 24.2178 81.7827 23.1063 81.7827 21.7927V13.6078C81.7827 10.1722 79.7954 7.14072 74.3725 7.14072C69.4548 7.14072 67.2318 10.3069 67.0297 12.6984L71.4758 13.6078C71.5768 12.3615 72.5536 11.149 74.3388 11.149C75.9556 11.149 76.7976 11.991 76.7976 12.9678C76.7976 13.5404 76.4945 13.9783 75.5851 14.113L71.6442 14.7193C68.8822 15.1235 66.6928 16.8076 66.6928 19.7717ZM73.7325 21.1527C72.3178 21.1527 71.7452 20.3106 71.7452 19.4349C71.7452 18.256 72.5536 17.7507 73.6315 17.5823L76.7976 17.0771V17.8181C76.7976 20.4117 75.2482 21.1527 73.7325 21.1527Z" fill="#3E15B4"/>
<path d="M92.0564 2.76198H87.4755V4.91767C87.4755 6.46707 86.6335 7.64596 84.882 7.64596H84.0399V12.1257H87.004V19.3001C87.004 22.6347 89.126 24.6894 92.5953 24.6894C94.2121 24.6894 95.0541 24.3189 95.2562 24.2178V19.9738C94.9531 20.0412 94.4478 20.1422 93.9089 20.1422C92.7974 20.1422 92.0564 19.7717 92.0564 18.3907V12.1257H95.3236V7.64596H92.0564V2.76198Z" fill="#3E15B4"/>
<path d="M106.468 11.8563C108.455 11.8563 109.466 13.0689 109.836 14.3488L114.417 12.9678C113.676 9.97006 110.981 7.14072 106.367 7.14072C101.449 7.14072 97.5419 10.8121 97.5419 16.0329C97.5419 21.2201 101.55 24.8915 106.535 24.8915C111.015 24.8915 113.777 21.9948 114.518 19.0644L110.004 17.6834C109.634 18.9296 108.522 20.1759 106.535 20.1759C104.413 20.1759 102.628 18.6939 102.628 16.0329C102.628 13.3383 104.346 11.8563 106.468 11.8563Z" fill="#3E15B4"/>
<path d="M122.755 14.5509C122.856 13.0015 123.9 11.8563 125.517 11.8563C127.369 11.8563 128.245 13.1025 128.245 14.753V24.3862H133.365V13.8772C133.365 10.2058 131.411 7.20808 127.033 7.20808C125.551 7.20808 123.799 7.67964 122.755 8.7238V0H117.635V24.3862H122.755V14.5509Z" fill="#3E15B4"/>
<path d="M12.8649 21.1116L7.36812 15.6148L9.00547 13.9774L12.8649 17.8369L22.689 8.01278C20.4669 5.79066 17.4261 4.27026 14.0345 4.27026C7.60202 4.27026 2.33911 9.53317 2.33911 15.9656C2.33911 22.3981 7.60202 27.661 14.0345 27.661C20.4669 27.661 25.7298 22.3981 25.7298 15.9656C25.7298 13.7435 25.1451 11.7553 24.0925 10.001L12.8649 21.1116Z" fill="#3E15B4"/>
</svg>
