<svg width="128" height="128" viewBox="0 0 512 512" fill="none" xmlns="http://www.w3.org/2000/svg">
<path d="M512 0H0V512H512V0Z" fill="white"/>
<path d="M161.769 418.857V400.531C159.637 403.892 156.829 406.639 153.344 408.771C149.9 410.862 146.415 411.908 142.889 411.908C138.995 411.908 135.53 411.006 132.496 409.202C129.463 407.357 127.023 404.856 125.178 401.699C123.333 398.501 121.939 394.873 120.996 390.814C120.053 386.714 119.582 382.266 119.582 377.469C119.582 372.672 120.033 368.224 120.935 364.124C121.878 359.984 123.272 356.294 125.117 353.055C126.962 349.775 129.401 347.213 132.435 345.368C135.469 343.482 138.954 342.539 142.889 342.539C146.456 342.539 149.962 343.584 153.405 345.675C156.849 347.725 159.637 350.431 161.769 353.793V344.199H177.635V418.611C177.635 420.415 178.045 421.624 178.865 422.239C179.726 422.854 181.51 423.162 184.215 423.162V437.798C176.754 437.798 171.137 436.281 167.365 433.247C163.634 430.213 161.769 425.416 161.769 418.857ZM135.571 377.162C135.571 380.442 135.961 383.434 136.74 386.14C137.56 388.805 138.626 390.937 139.938 392.536C141.249 394.135 142.643 395.365 144.119 396.226C145.636 397.087 147.133 397.517 148.609 397.517C150.208 397.517 151.765 397.189 153.282 396.533C154.799 395.836 156.255 394.75 157.649 393.274C159.043 391.798 160.15 389.687 160.97 386.94C161.83 384.152 162.261 380.893 162.261 377.162C162.261 373.472 161.83 370.254 160.97 367.507C160.15 364.719 159.043 362.607 157.649 361.173C156.255 359.697 154.799 358.631 153.282 357.975C151.765 357.278 150.208 356.929 148.609 356.929C147.01 356.929 145.472 357.298 143.996 358.036C142.561 358.733 141.188 359.84 139.876 361.357C138.564 362.874 137.519 364.985 136.74 367.691C135.961 370.397 135.571 373.554 135.571 377.162Z" fill="#7D59E5"/>
<path d="M167.253 418.857V400.531C165.121 403.893 162.312 406.639 158.828 408.771C155.384 410.862 151.899 411.908 148.373 411.908C144.478 411.908 141.014 411.006 137.98 409.202C134.946 407.357 132.507 404.856 130.662 401.699C128.817 398.501 127.423 394.873 126.48 390.814C125.537 386.714 125.066 382.266 125.066 377.469C125.066 372.673 125.517 368.224 126.419 364.124C127.362 359.984 128.756 356.294 130.6 353.055C132.445 349.775 134.885 347.213 137.919 345.368C140.952 343.482 144.437 342.539 148.373 342.539C151.94 342.539 155.445 343.584 158.889 345.675C162.333 347.725 165.121 350.431 167.253 353.793V344.199H183.119V418.611C183.119 420.415 183.529 421.624 184.349 422.239C185.21 422.854 186.993 423.162 189.699 423.162V437.798C182.237 437.798 176.621 436.281 172.849 433.247C169.118 430.213 167.253 425.417 167.253 418.857ZM141.055 377.162C141.055 380.442 141.444 383.435 142.223 386.14C143.043 388.805 144.109 390.937 145.421 392.536C146.733 394.135 148.127 395.365 149.603 396.226C151.12 397.087 152.616 397.517 154.092 397.517C155.691 397.517 157.249 397.189 158.766 396.533C160.283 395.836 161.738 394.75 163.132 393.274C164.526 391.798 165.633 389.687 166.453 386.94C167.314 384.152 167.745 380.893 167.745 377.162C167.745 373.472 167.314 370.254 166.453 367.507C165.633 364.719 164.526 362.608 163.132 361.173C161.738 359.697 160.283 358.631 158.766 357.975C157.249 357.278 155.691 356.929 154.092 356.929C152.493 356.929 150.956 357.298 149.48 358.036C148.045 358.733 146.672 359.84 145.36 361.357C144.048 362.874 143.002 364.985 142.223 367.691C141.444 370.397 141.055 373.554 141.055 377.162Z" fill="#FF7070"/>
<path d="M251.811 410.186H235.945V400.285C234.1 403.606 231.394 406.393 227.827 408.648C224.301 410.862 220.509 411.969 216.45 411.969C210.383 411.969 205.586 409.038 202.06 403.175C198.534 397.271 196.771 388.641 196.771 377.285V344.199H212.638V377.223C212.638 380.462 212.863 383.332 213.314 385.833C213.806 388.293 214.4 390.261 215.097 391.737C215.835 393.172 216.696 394.34 217.68 395.242C218.705 396.144 219.689 396.759 220.632 397.087C221.616 397.374 222.641 397.517 223.707 397.517C224.814 397.517 225.88 397.353 226.905 397.025C227.93 396.697 228.996 396.082 230.103 395.18C231.21 394.279 232.173 393.11 232.993 391.675C233.854 390.199 234.551 388.231 235.084 385.771C235.617 383.271 235.883 380.401 235.883 377.162V344.199H251.811V410.186Z" fill="#FF7070"/>
<path d="M281.699 410.186H265.832V320.769H281.699V354.1C283.544 350.739 286.249 347.951 289.816 345.737C293.424 343.523 297.339 342.416 301.562 342.416C303.817 342.416 306.052 343.01 308.265 344.199C310.52 345.347 312.591 347.008 314.477 349.181C316.403 351.313 317.941 354.121 319.089 357.606C320.278 361.091 320.872 364.924 320.872 369.106V410.186H305.006V377.162C305.006 373.062 304.74 369.639 304.207 366.892C303.715 364.145 302.956 362.075 301.931 360.681C300.906 359.246 299.758 358.262 298.487 357.729C297.257 357.155 295.74 356.868 293.937 356.868C292.502 356.868 291.21 357.032 290.062 357.36C288.955 357.688 287.848 358.303 286.741 359.205C285.675 360.107 284.774 361.296 284.036 362.772C283.339 364.247 282.765 366.215 282.314 368.675C281.904 371.094 281.699 373.943 281.699 377.223V410.186Z" fill="#FF7070"/>
<path d="M389.196 410.186H373.329V400.285C371.484 403.606 368.779 406.393 365.212 408.648C361.686 410.862 357.894 411.969 353.835 411.969C347.767 411.969 342.97 409.038 339.444 403.175C335.919 397.271 334.156 388.641 334.156 377.285V344.199H350.022V377.223C350.022 380.462 350.247 383.332 350.698 385.833C351.19 388.293 351.785 390.261 352.482 391.737C353.22 393.172 354.081 394.34 355.065 395.242C356.09 396.144 357.074 396.759 358.017 397.087C359 397.374 360.025 397.517 361.091 397.517C362.198 397.517 363.264 397.353 364.289 397.025C365.314 396.697 366.38 396.082 367.487 395.18C368.594 394.279 369.557 393.11 370.377 391.675C371.238 390.199 371.935 388.231 372.468 385.771C373.001 383.271 373.268 380.401 373.268 377.162V344.199H389.196V410.186Z" fill="#FF7070"/>
<path d="M392.09 193.119C388.978 193.118 385.994 191.88 383.794 189.679C381.594 187.478 380.358 184.494 380.358 181.382V155.812C380.358 152.701 381.594 149.717 383.794 147.517C385.994 145.317 388.978 144.081 392.09 144.081C395.202 144.081 398.186 145.317 400.387 147.517C402.588 149.716 403.826 152.7 403.827 155.812V181.382C403.827 182.923 403.524 184.449 402.934 185.873C402.344 187.297 401.479 188.591 400.389 189.681C399.299 190.771 398.006 191.636 396.581 192.226C395.157 192.816 393.631 193.119 392.09 193.119ZM130.985 181.382V155.812C130.985 154.272 130.681 152.746 130.092 151.323C129.502 149.9 128.638 148.606 127.549 147.517C126.459 146.428 125.166 145.563 123.743 144.974C122.319 144.384 120.794 144.081 119.253 144.081C116.141 144.081 113.157 145.317 110.956 147.517C108.755 149.716 107.517 152.7 107.516 155.812V181.382C107.516 184.495 108.752 187.48 110.953 189.681C113.155 191.883 116.14 193.119 119.253 193.119C122.365 193.118 125.349 191.88 127.549 189.679C129.749 187.478 130.985 184.494 130.985 181.382ZM334.541 116.521C328.186 116.522 322.093 119.048 317.601 123.541C313.108 128.035 310.585 134.129 310.585 140.483V199.25C303.839 207.353 295.974 209.599 289.411 209.599V99.1946C289.411 90.2464 285.856 81.6647 279.529 75.3373C273.201 69.01 264.62 65.4553 255.671 65.4553C246.723 65.4553 238.142 69.01 231.814 75.3373C225.487 81.6647 221.932 90.2464 221.932 99.1946V165.115C218.543 168.667 214.292 171.281 209.592 172.7C206.727 173.549 203.744 173.925 200.758 173.814V118.554C200.758 118.463 200.758 118.372 200.758 118.286C200.632 110.103 197.289 102.299 191.453 96.562C185.617 90.8246 177.757 87.6152 169.574 87.628C161.39 87.6408 153.54 90.8748 147.722 96.6304C141.904 102.386 138.586 110.201 138.485 118.384C138.485 118.439 138.485 118.493 138.485 118.554C138.485 118.798 138.515 119.035 138.521 119.285C138.521 119.723 138.558 120.155 138.588 120.588C138.961 126.456 140.999 132.097 144.463 136.848L144.756 137.238C145.072 137.664 145.364 138.09 145.717 138.498C147.759 141.012 150.167 143.206 152.859 145.006V195.627C152.917 201.919 155.449 207.934 159.906 212.375C164.363 216.815 170.388 219.324 176.68 219.359C182.971 219.394 189.024 216.953 193.53 212.563C198.037 208.173 200.635 202.186 200.764 195.895C202.375 193.717 204.336 191.82 206.566 190.282C211.094 187.212 216.483 185.664 221.95 185.862V238.03C221.95 246.978 225.505 255.56 231.832 261.887C238.16 268.214 246.742 271.769 255.69 271.769C264.638 271.769 273.22 268.214 279.547 261.887C285.874 255.56 289.429 246.978 289.429 238.03V229.768C292.148 226.953 295.457 224.775 299.118 223.392C302.779 222.009 306.702 221.454 310.603 221.769V224.941C310.703 231.229 313.271 237.226 317.754 241.637C322.236 246.048 328.273 248.521 334.562 248.521C340.851 248.521 346.888 246.048 351.37 241.637C355.852 237.226 358.421 231.229 358.521 224.941V140.483C358.521 137.335 357.901 134.217 356.695 131.309C355.49 128.4 353.723 125.758 351.496 123.533C349.269 121.307 346.625 119.543 343.716 118.34C340.807 117.136 337.689 116.518 334.541 116.521Z" fill="url(#paint0_linear_0_1)"/>
<defs>
<linearGradient id="paint0_linear_0_1" x1="77.2948" y1="92.711" x2="398.415" y2="229.324" gradientUnits="userSpaceOnUse">
<stop stop-color="#7D59E5"/>
<stop offset="0.14" stop-color="#805AE2"/>
<stop offset="0.24" stop-color="#895BDA"/>
<stop offset="0.33" stop-color="#995ECC"/>
<stop offset="0.41" stop-color="#B062B7"/>
<stop offset="0.49" stop-color="#CD679D"/>
<stop offset="0.57" stop-color="#F06E7E"/>
<stop offset="0.59" stop-color="#FD7072"/>
<stop offset="1" stop-color="#FF7070"/>
</linearGradient>
</defs>
</svg>
