<svg width="268" height="64" viewBox="0 0 134 32" fill="none" xmlns="http://www.w3.org/2000/svg">
<path d="M41.52 23C41.2133 23 40.9467 22.8867 40.72 22.66C40.4933 22.4333 40.38 22.1667 40.38 21.86V13.74C40.38 13.4333 40.4933 13.1667 40.72 12.94C40.9467 12.7133 41.2133 12.6 41.52 12.6H41.92C42.2267 12.6 42.4933 12.7133 42.72 12.94C42.9467 13.1667 43.06 13.4333 43.06 13.74V14.58C43.06 14.5933 43.0667 14.6 43.08 14.6C43.1067 14.6 43.12 14.5933 43.12 14.58C43.5067 14.0467 44.0133 13.6133 44.64 13.28C45.2667 12.9333 45.9533 12.72 46.7 12.64C46.98 12.6133 47.22 12.7067 47.42 12.92C47.62 13.12 47.72 13.36 47.72 13.64C47.72 13.92 47.62 14.16 47.42 14.36C47.22 14.56 46.98 14.6733 46.7 14.7C44.34 14.8867 43.16 16.0867 43.16 18.3V21.86C43.16 22.1667 43.0467 22.4333 42.82 22.66C42.5933 22.8867 42.3267 23 42.02 23H41.52ZM52.767 22.84L49.447 13.66C49.367 13.3933 49.4004 13.1533 49.547 12.94C49.6937 12.7133 49.907 12.6 50.187 12.6H50.787C51.1204 12.6 51.427 12.7067 51.707 12.92C51.987 13.12 52.167 13.38 52.247 13.7L54.107 20.24C54.107 20.2533 54.1137 20.26 54.127 20.26C54.1404 20.26 54.147 20.2533 54.147 20.24L56.287 13.68C56.3937 13.36 56.587 13.1 56.867 12.9C57.147 12.7 57.4537 12.6 57.787 12.6H58.267C58.547 12.6 58.7604 12.7133 58.907 12.94C59.067 13.1667 59.0937 13.4067 58.987 13.66L54.107 26.34C53.987 26.66 53.787 26.9133 53.507 27.1C53.227 27.3 52.9137 27.4 52.567 27.4H52.087C51.8204 27.4 51.607 27.2867 51.447 27.06C51.3004 26.8467 51.2804 26.6133 51.387 26.36L52.767 23.16C52.7937 23.1067 52.807 23.0533 52.807 23C52.807 22.9467 52.7937 22.8933 52.767 22.84ZM61.3478 14.94C61.0811 14.94 60.8545 14.8467 60.6678 14.66C60.4811 14.46 60.3878 14.2267 60.3878 13.96C60.3878 13.6933 60.4811 13.4667 60.6678 13.28C60.8545 13.0933 61.0811 13 61.3478 13H62.3078C62.4278 13 62.4878 12.94 62.4878 12.82V10.34C62.4878 10.0333 62.5945 9.76667 62.8078 9.54C63.0345 9.31333 63.3011 9.2 63.6078 9.2H64.0078C64.3145 9.2 64.5811 9.31333 64.8078 9.54C65.0345 9.76667 65.1478 10.0333 65.1478 10.34V12.82C65.1478 12.94 65.2078 13 65.3278 13H67.6078C67.8745 13 68.1011 13.0933 68.2878 13.28C68.4878 13.4667 68.5878 13.6933 68.5878 13.96C68.5878 14.2267 68.4878 14.46 68.2878 14.66C68.1011 14.8467 67.8745 14.94 67.6078 14.94H65.3278C65.2078 14.94 65.1478 14.9933 65.1478 15.1V19.14C65.1478 20.0067 65.2411 20.5667 65.4278 20.82C65.6145 21.0733 66.0011 21.2 66.5878 21.2C66.9078 21.2 67.1478 21.1867 67.3078 21.16C67.5745 21.1333 67.8078 21.1933 68.0078 21.34C68.2078 21.4867 68.3078 21.6867 68.3078 21.94C68.3078 22.2333 68.2078 22.5 68.0078 22.74C67.8211 22.9667 67.5878 23.0933 67.3078 23.12C66.7211 23.1733 66.2811 23.2 65.9878 23.2C64.6945 23.2 63.7878 22.9267 63.2678 22.38C62.7478 21.82 62.4878 20.8267 62.4878 19.4V15.1C62.4878 14.9933 62.4278 14.94 62.3078 14.94H61.3478ZM77.2813 15.18C76.8946 14.62 76.3079 14.34 75.5213 14.34C74.7346 14.34 74.1413 14.62 73.7413 15.18C73.3546 15.7267 73.1613 16.6 73.1613 17.8C73.1613 19 73.3546 19.88 73.7413 20.44C74.1413 20.9867 74.7346 21.26 75.5213 21.26C76.3079 21.26 76.8946 20.9867 77.2813 20.44C77.6813 19.88 77.8813 19 77.8813 17.8C77.8813 16.6 77.6813 15.7267 77.2813 15.18ZM79.2413 21.8C78.3613 22.7333 77.1213 23.2 75.5213 23.2C73.9213 23.2 72.6746 22.7333 71.7813 21.8C70.9013 20.8533 70.4613 19.52 70.4613 17.8C70.4613 16.08 70.9013 14.7533 71.7813 13.82C72.6746 12.8733 73.9213 12.4 75.5213 12.4C77.1213 12.4 78.3613 12.8733 79.2413 13.82C80.1346 14.7533 80.5813 16.08 80.5813 17.8C80.5813 19.52 80.1346 20.8533 79.2413 21.8ZM85.2856 16.44V19.16C85.2856 19.6933 85.5123 20.1667 85.9656 20.58C86.4323 20.9933 86.9723 21.2 87.5856 21.2C88.2923 21.2 88.8523 20.9133 89.2656 20.34C89.679 19.7667 89.8856 18.92 89.8856 17.8C89.8856 15.5333 89.119 14.4 87.5856 14.4C86.9723 14.4 86.4323 14.6067 85.9656 15.02C85.5123 15.4333 85.2856 15.9067 85.2856 16.44ZM83.7856 27.4C83.479 27.4 83.2123 27.2867 82.9856 27.06C82.759 26.8333 82.6456 26.5667 82.6456 26.26V13.74C82.6456 13.4333 82.759 13.1667 82.9856 12.94C83.2123 12.7133 83.479 12.6 83.7856 12.6H84.0256C84.3456 12.6 84.619 12.7133 84.8456 12.94C85.0723 13.1533 85.1923 13.42 85.2056 13.74V13.88C85.2056 13.8933 85.2123 13.9 85.2256 13.9C85.239 13.9 85.2523 13.8933 85.2656 13.88C85.7456 13.3467 86.2256 12.9667 86.7056 12.74C87.1856 12.5133 87.7456 12.4 88.3856 12.4C89.639 12.4 90.639 12.8733 91.3856 13.82C92.1323 14.7533 92.5056 16.08 92.5056 17.8C92.5056 19.4667 92.1123 20.7867 91.3256 21.76C90.5523 22.72 89.5723 23.2 88.3856 23.2C87.2256 23.2 86.219 22.78 85.3656 21.94C85.3523 21.9267 85.339 21.92 85.3256 21.92C85.3123 21.92 85.3056 21.9267 85.3056 21.94V26.26C85.3056 26.5667 85.1923 26.8333 84.9656 27.06C84.7523 27.2867 84.4923 27.4 84.1856 27.4H83.7856ZM94.922 14.94C94.6554 14.94 94.4287 14.8467 94.242 14.66C94.0554 14.46 93.962 14.2267 93.962 13.96C93.962 13.6933 94.0554 13.4667 94.242 13.28C94.4287 13.0933 94.6554 13 94.922 13H95.882C96.002 13 96.062 12.94 96.062 12.82V10.34C96.062 10.0333 96.1687 9.76667 96.382 9.54C96.6087 9.31333 96.8754 9.2 97.182 9.2H97.582C97.8887 9.2 98.1554 9.31333 98.382 9.54C98.6087 9.76667 98.722 10.0333 98.722 10.34V12.82C98.722 12.94 98.782 13 98.902 13H101.182C101.449 13 101.675 13.0933 101.862 13.28C102.062 13.4667 102.162 13.6933 102.162 13.96C102.162 14.2267 102.062 14.46 101.862 14.66C101.675 14.8467 101.449 14.94 101.182 14.94H98.902C98.782 14.94 98.722 14.9933 98.722 15.1V19.14C98.722 20.0067 98.8154 20.5667 99.002 20.82C99.1887 21.0733 99.5754 21.2 100.162 21.2C100.482 21.2 100.722 21.1867 100.882 21.16C101.149 21.1333 101.382 21.1933 101.582 21.34C101.782 21.4867 101.882 21.6867 101.882 21.94C101.882 22.2333 101.782 22.5 101.582 22.74C101.395 22.9667 101.162 23.0933 100.882 23.12C100.295 23.1733 99.8554 23.2 99.562 23.2C98.2687 23.2 97.362 22.9267 96.842 22.38C96.322 21.82 96.062 20.8267 96.062 19.4V15.1C96.062 14.9933 96.002 14.94 95.882 14.94H94.922ZM106.671 23C106.364 23 106.097 22.8867 105.871 22.66C105.644 22.4333 105.531 22.1667 105.531 21.86V13.74C105.531 13.4333 105.644 13.1667 105.871 12.94C106.097 12.7133 106.364 12.6 106.671 12.6H107.191C107.497 12.6 107.764 12.7133 107.991 12.94C108.217 13.1667 108.331 13.4333 108.331 13.74V21.86C108.331 22.1667 108.217 22.4333 107.991 22.66C107.764 22.8867 107.497 23 107.191 23H106.671ZM106.671 10.4C106.364 10.4 106.097 10.2867 105.871 10.06C105.644 9.83333 105.531 9.56667 105.531 9.26V9.14C105.531 8.83333 105.644 8.56667 105.871 8.34C106.097 8.11333 106.364 8 106.671 8H107.191C107.497 8 107.764 8.11333 107.991 8.34C108.217 8.56667 108.331 8.83333 108.331 9.14V9.26C108.331 9.56667 108.217 9.83333 107.991 10.06C107.764 10.2867 107.497 10.4 107.191 10.4H106.671ZM117.809 15.18C117.422 14.62 116.835 14.34 116.049 14.34C115.262 14.34 114.669 14.62 114.269 15.18C113.882 15.7267 113.689 16.6 113.689 17.8C113.689 19 113.882 19.88 114.269 20.44C114.669 20.9867 115.262 21.26 116.049 21.26C116.835 21.26 117.422 20.9867 117.809 20.44C118.209 19.88 118.409 19 118.409 17.8C118.409 16.6 118.209 15.7267 117.809 15.18ZM119.769 21.8C118.889 22.7333 117.649 23.2 116.049 23.2C114.449 23.2 113.202 22.7333 112.309 21.8C111.429 20.8533 110.989 19.52 110.989 17.8C110.989 16.08 111.429 14.7533 112.309 13.82C113.202 12.8733 114.449 12.4 116.049 12.4C117.649 12.4 118.889 12.8733 119.769 13.82C120.662 14.7533 121.109 16.08 121.109 17.8C121.109 19.52 120.662 20.8533 119.769 21.8ZM124.313 23C124.006 23 123.74 22.8867 123.513 22.66C123.286 22.4333 123.173 22.1667 123.173 21.86V13.74C123.173 13.4333 123.286 13.1667 123.513 12.94C123.74 12.7133 124.006 12.6 124.313 12.6H124.573C124.893 12.6 125.16 12.7133 125.373 12.94C125.6 13.1533 125.72 13.42 125.733 13.74V13.88C125.733 13.8933 125.74 13.9 125.753 13.9C125.766 13.9 125.78 13.8933 125.793 13.88C126.7 12.8933 127.76 12.4 128.973 12.4C130.186 12.4 131.066 12.7467 131.613 13.44C132.173 14.12 132.453 15.26 132.453 16.86V21.86C132.453 22.1667 132.34 22.4333 132.113 22.66C131.886 22.8867 131.62 23 131.313 23H130.973C130.666 23 130.4 22.8867 130.173 22.66C129.96 22.4333 129.853 22.1667 129.853 21.86V17.06C129.853 16.06 129.72 15.38 129.453 15.02C129.2 14.6467 128.74 14.46 128.073 14.46C127.526 14.46 127.02 14.6933 126.553 15.16C126.086 15.6267 125.853 16.1267 125.853 16.66V21.86C125.853 22.1667 125.74 22.4333 125.513 22.66C125.286 22.8867 125.02 23 124.713 23H124.313Z" fill="black"/>
<circle cx="15" cy="17" r="15" fill="#BFBFBF"/>
<path d="M20.8756 16.3934H9.13821L9.15536 16.4204L9.04297 18.9299H20.9708L20.8584 16.4204L20.8756 16.3934Z" fill="url(#paint0_linear_301_2775)"/>
<path d="M21.7248 18.7206H8.27437C8.15864 18.7206 8.04765 18.7666 7.96582 18.8484C7.88398 18.9303 7.83801 19.0413 7.83801 19.157V24.4658C7.83801 24.5816 7.88398 24.6926 7.96582 24.7744C8.04765 24.8562 8.15864 24.9022 8.27437 24.9022H21.7248C21.8405 24.9022 21.9515 24.8562 22.0333 24.7744C22.1152 24.6926 22.1611 24.5816 22.1611 24.4658V19.157C22.1611 19.0413 22.1152 18.9303 22.0333 18.8484C21.9515 18.7666 21.8405 18.7206 21.7248 18.7206V18.7206Z" fill="url(#paint1_linear_301_2775)"/>
<path d="M21.717 9.03345H18.828C18.7023 9.03345 18.5819 9.08335 18.493 9.17219C18.4042 9.26102 18.3543 9.38151 18.3543 9.50714V10.7344H17.4226V9.50714C17.4226 9.38151 17.3727 9.26102 17.2838 9.17219C17.195 9.08335 17.0745 9.03345 16.9489 9.03345H13.0647C12.9391 9.03345 12.8186 9.08335 12.7298 9.17219C12.641 9.26102 12.5911 9.38151 12.5911 9.50714V10.7344H11.6594V9.50714C11.6594 9.38151 11.6095 9.26102 11.5207 9.17219C11.4318 9.08335 11.3114 9.03345 11.1857 9.03345H8.29669C8.17106 9.03345 8.05057 9.08335 7.96174 9.17219C7.87291 9.26102 7.823 9.38151 7.823 9.50714V14.3705C7.82288 14.4603 7.84838 14.5482 7.89649 14.624L9.15499 16.6068H20.858L22.1165 14.624C22.1646 14.5482 22.1901 14.4603 22.19 14.3705V9.50714C22.19 9.38163 22.1402 9.26124 22.0515 9.17243C21.9628 9.08362 21.8425 9.03364 21.717 9.03345Z" fill="url(#paint2_linear_301_2775)"/>
<path opacity="0.11" d="M9.15552 16.6065L20.8664 16.5942L20.9502 18.4666C18.0644 16.9678 9.15552 16.6065 9.15552 16.6065Z" fill="url(#paint3_linear_301_2775)"/>
<defs>
<linearGradient id="paint0_linear_301_2775" x1="10.7009" y1="17.6616" x2="25.8851" y2="17.6616" gradientUnits="userSpaceOnUse">
<stop stop-color="#2B31BA"/>
<stop offset="1" stop-color="#BDBDBD"/>
</linearGradient>
<linearGradient id="paint1_linear_301_2775" x1="13.1805" y1="21.8114" x2="25.7563" y2="21.8114" gradientUnits="userSpaceOnUse">
<stop stop-color="#2B31BA"/>
<stop offset="1" stop-color="#BDBDBD"/>
</linearGradient>
<linearGradient id="paint2_linear_301_2775" x1="12.5354" y1="12.8201" x2="25.4944" y2="12.8201" gradientUnits="userSpaceOnUse">
<stop stop-color="#2B31BA"/>
<stop offset="1" stop-color="#BDBDBD"/>
</linearGradient>
<linearGradient id="paint3_linear_301_2775" x1="9.15552" y1="16.5942" x2="20.9502" y2="16.5942" gradientUnits="userSpaceOnUse">
<stop stop-color="#2B31BA"/>
<stop offset="1" stop-color="#777777"/>
</linearGradient>
</defs>
</svg>
