<svg width="130" height="37" viewBox="0 0 130 37" fill="none" xmlns="http://www.w3.org/2000/svg">
<g filter="url(#filter0_d)">
<path d="M24.025 9.5L17.165 27H13.315L6.455 9.5H11.075L15.24 21.54L19.405 9.5H24.025ZM41.6926 19.895H29.5126C29.886 22.3683 31.321 23.605 33.8176 23.605C34.8443 23.605 35.731 23.43 36.4776 23.08C37.2476 22.73 37.9943 22.1467 38.7176 21.33L41.1326 23.64C40.456 24.76 39.4293 25.6583 38.0526 26.335C36.6993 27.0117 35.206 27.35 33.5726 27.35C30.8426 27.35 28.7193 26.5567 27.2026 24.97C25.686 23.36 24.9276 21.1433 24.9276 18.32C24.9276 15.4733 25.686 13.2333 27.2026 11.6C28.7426 9.96667 30.8543 9.15 33.5376 9.15C36.1043 9.15 38.0993 9.955 39.5226 11.565C40.9693 13.175 41.6926 15.415 41.6926 18.285V19.895ZM37.3176 16.64C37.3176 15.45 36.9676 14.5167 36.2676 13.84C35.591 13.14 34.646 12.79 33.4326 12.79C32.336 12.79 31.4493 13.1517 30.7726 13.875C30.096 14.575 29.6643 15.5667 29.4776 16.85H37.3176V16.64ZM44.4223 14.12C44.4223 11.9967 44.3757 10.4567 44.2823 9.5H48.4823C48.599 10.48 48.6573 11.495 48.6573 12.545H48.7623C49.1823 11.5183 49.9173 10.7017 50.9673 10.095C52.0407 9.465 53.2307 9.15 54.5373 9.15C56.544 9.15 58.0607 9.82667 59.0873 11.18C60.114 12.5333 60.6273 14.5283 60.6273 17.165V27H56.1823V17.13C56.1823 15.6133 55.9373 14.505 55.4473 13.805C54.9573 13.105 54.1757 12.755 53.1023 12.755C51.8657 12.755 50.8507 13.1983 50.0573 14.085C49.2873 14.9483 48.9023 16.0683 48.9023 17.445V27H44.4223V14.12ZM70.829 27.35C68.5424 27.35 66.734 26.5217 65.404 24.865C64.0974 23.185 63.444 20.8867 63.444 17.97C63.444 16.1967 63.7474 14.645 64.354 13.315C64.9607 11.985 65.824 10.9583 66.944 10.235C68.0874 9.51167 69.4174 9.15 70.934 9.15C71.9607 9.15 72.859 9.325 73.629 9.675C74.4224 10.025 75.1107 10.5617 75.694 11.285H75.764V1.03H80.209V22.345C80.209 24.7717 80.244 26.3233 80.314 27H76.114C76.0907 26.6033 76.079 25.8333 76.079 24.69H76.009C75.4724 25.4833 74.7257 26.125 73.769 26.615C72.8357 27.105 71.8557 27.35 70.829 27.35ZM71.704 23.92C72.9407 23.92 73.9207 23.57 74.644 22.87C75.3907 22.1467 75.764 21.2017 75.764 20.035V16.43C75.764 15.2867 75.379 14.3417 74.609 13.595C73.839 12.8483 72.8707 12.475 71.704 12.475C70.4674 12.475 69.5224 12.9533 68.869 13.91C68.2157 14.8667 67.889 16.2433 67.889 18.04C67.889 19.93 68.2157 21.3883 68.869 22.415C69.5224 23.4183 70.4674 23.92 71.704 23.92Z" fill="black"/>
<path d="M85.2706 12.545H82.4006V9.5H85.2706V7.4C85.2706 5.69667 85.8073 4.355 86.8806 3.375C87.954 2.395 89.424 1.905 91.2906 1.905C92.154 1.905 92.959 2.045 93.7056 2.325C94.4523 2.58167 95.059 2.94333 95.5256 3.41L93.9856 6.07C93.7056 5.81333 93.379 5.615 93.0056 5.475C92.6323 5.335 92.259 5.265 91.8856 5.265C91.209 5.265 90.6723 5.48666 90.2756 5.93C89.9023 6.37333 89.7156 6.98 89.7156 7.75V9.5H94.6506V12.545H89.7156V27H85.2706V12.545ZM101.231 27.35C99.7373 27.35 98.594 26.9533 97.8006 26.16C97.0306 25.3433 96.6456 24.1767 96.6456 22.66V1.03H101.091V22.73C101.091 23.2433 101.219 23.6283 101.476 23.885C101.756 24.1183 102.164 24.235 102.701 24.235C103.237 24.235 103.902 24.0833 104.696 23.78L105.361 26.16C104.311 26.9533 102.934 27.35 101.231 27.35ZM114.997 27.35C112.174 27.35 109.969 26.545 108.382 24.935C106.795 23.325 106.002 21.0967 106.002 18.25C106.002 15.4033 106.795 13.175 108.382 11.565C109.969 9.955 112.174 9.15 114.997 9.15C117.82 9.15 120.025 9.955 121.612 11.565C123.222 13.175 124.027 15.4033 124.027 18.25C124.027 21.0967 123.222 23.325 121.612 24.935C120.025 26.545 117.82 27.35 114.997 27.35ZM114.997 24.025C116.42 24.025 117.54 23.5117 118.357 22.485C119.174 21.4583 119.582 20.0467 119.582 18.25C119.582 16.4533 119.174 15.0417 118.357 14.015C117.54 12.9883 116.42 12.475 114.997 12.475C113.574 12.475 112.454 12.9883 111.637 14.015C110.844 15.0417 110.447 16.4533 110.447 18.25C110.447 20.0467 110.844 21.4583 111.637 22.485C112.454 23.5117 113.574 24.025 114.997 24.025Z" fill="#BB172B"/>
<path d="M24.025 9.5L24.956 9.86496L25.4911 8.5H24.025V9.5ZM17.165 27V28H17.8471L18.096 27.365L17.165 27ZM13.315 27L12.384 27.365L12.6329 28H13.315V27ZM6.455 9.5V8.5H4.98891L5.52398 9.86496L6.455 9.5ZM11.075 9.5L12.0201 9.17308L11.7872 8.5H11.075V9.5ZM15.24 21.54L14.2949 21.8669L15.24 24.5988L16.1851 21.8669L15.24 21.54ZM19.405 9.5V8.5H18.6928L18.4599 9.17308L19.405 9.5ZM23.094 9.13504L16.234 26.635L18.096 27.365L24.956 9.86496L23.094 9.13504ZM17.165 26H13.315V28H17.165V26ZM14.246 26.635L7.38602 9.13504L5.52398 9.86496L12.384 27.365L14.246 26.635ZM6.455 10.5H11.075V8.5H6.455V10.5ZM10.1299 9.82692L14.2949 21.8669L16.1851 21.2131L12.0201 9.17308L10.1299 9.82692ZM16.1851 21.8669L20.3501 9.82692L18.4599 9.17308L14.2949 21.2131L16.1851 21.8669ZM19.405 10.5H24.025V8.5H19.405V10.5ZM41.6926 19.895V20.895H42.6926V19.895H41.6926ZM29.5126 19.895V18.895H28.3503L28.5238 20.0443L29.5126 19.895ZM36.4776 23.08L36.0638 22.1696L36.0532 22.1745L36.4776 23.08ZM38.7176 21.33L39.4088 20.6074L38.658 19.8891L37.969 20.667L38.7176 21.33ZM41.1326 23.64L41.9885 24.1571L42.4029 23.4713L41.8238 22.9174L41.1326 23.64ZM38.0526 26.335L37.6115 25.4375L37.6054 25.4406L38.0526 26.335ZM27.2026 24.97L26.4747 25.6557L26.4797 25.661L27.2026 24.97ZM27.2026 11.6L26.475 10.914L26.4698 10.9195L27.2026 11.6ZM39.5226 11.565L38.7734 12.2274L38.7788 12.2334L39.5226 11.565ZM36.2676 13.84L35.5486 14.535L35.5604 14.5472L35.5726 14.559L36.2676 13.84ZM30.7726 13.875L31.4916 14.57L31.4973 14.5641L31.5029 14.5582L30.7726 13.875ZM29.4776 16.85L28.488 16.7061L28.3216 17.85H29.4776V16.85ZM37.3176 16.85V17.85H38.3176V16.85H37.3176ZM41.6926 18.895H29.5126V20.895H41.6926V18.895ZM28.5238 20.0443C28.7346 21.4405 29.2662 22.6164 30.216 23.435C31.1661 24.2538 32.407 24.605 33.8176 24.605V22.605C32.7316 22.605 32.0066 22.3379 31.5217 21.92C31.0365 21.5019 30.664 20.8228 30.5014 19.7457L28.5238 20.0443ZM33.8176 24.605C34.956 24.605 35.9941 24.411 36.9021 23.9855L36.0532 22.1745C35.4678 22.449 34.7326 22.605 33.8176 22.605V24.605ZM36.8914 23.9904C37.8204 23.5681 38.6757 22.8855 39.4662 21.993L37.969 20.667C37.3128 21.4078 36.6748 21.8919 36.0638 22.1696L36.8914 23.9904ZM38.0264 22.0526L40.4414 24.3626L41.8238 22.9174L39.4088 20.6074L38.0264 22.0526ZM40.2767 23.1229C39.7151 24.0525 38.8465 24.8305 37.6115 25.4376L38.4937 27.2324C40.0121 26.4861 41.1968 25.4675 41.9885 24.1571L40.2767 23.1229ZM37.6054 25.4406C36.4018 26.0424 35.0633 26.35 33.5726 26.35V28.35C35.3486 28.35 36.9968 27.9809 38.4998 27.2294L37.6054 25.4406ZM33.5726 26.35C31.0447 26.35 29.2095 25.6223 27.9255 24.279L26.4797 25.661C28.229 27.491 30.6405 28.35 33.5726 28.35V26.35ZM27.9305 24.2843C26.6331 22.907 25.9276 20.9617 25.9276 18.32H23.9276C23.9276 21.325 24.7388 23.813 26.4747 25.6557L27.9305 24.2843ZM25.9276 18.32C25.9276 15.6532 26.6342 13.6818 27.9354 12.2805L26.4698 10.9195C24.7377 12.7849 23.9276 15.2935 23.9276 18.32H25.9276ZM27.9302 12.286C29.2447 10.8918 31.0715 10.15 33.5376 10.15V8.15C30.6371 8.15 28.2405 9.04152 26.475 10.914L27.9302 12.286ZM33.5376 10.15C35.8786 10.15 37.5768 10.8738 38.7734 12.2273L40.2718 10.9027C38.6217 9.03618 36.3299 8.15 33.5376 8.15V10.15ZM38.7788 12.2334C40.0129 13.6068 40.6926 15.5798 40.6926 18.285H42.6926C42.6926 15.2502 41.9256 12.7432 40.2664 10.8966L38.7788 12.2334ZM40.6926 18.285V19.895H42.6926V18.285H40.6926ZM38.3176 16.64C38.3176 15.2434 37.8995 14.0266 36.9626 13.121L35.5726 14.559C36.0357 15.0067 36.3176 15.6566 36.3176 16.64H38.3176ZM36.9866 13.145C36.0773 12.2043 34.8461 11.79 33.4326 11.79V13.79C34.4458 13.79 35.1046 14.0757 35.5486 14.535L36.9866 13.145ZM33.4326 11.79C32.0921 11.79 30.9294 12.2436 30.0423 13.1918L31.5029 14.5582C31.9691 14.0598 32.5798 13.79 33.4326 13.79V11.79ZM30.0536 13.18C29.1897 14.0737 28.695 15.2833 28.488 16.7061L30.4672 16.9939C30.6336 15.85 31.0022 15.0763 31.4916 14.57L30.0536 13.18ZM29.4776 17.85H37.3176V15.85H29.4776V17.85ZM38.3176 16.85V16.64H36.3176V16.85H38.3176ZM44.2823 9.5V8.5H43.18L43.2871 9.5971L44.2823 9.5ZM48.4823 9.5L49.4753 9.38179L49.3704 8.5H48.4823V9.5ZM48.6573 12.545H47.6573V13.545H48.6573V12.545ZM48.7623 12.545V13.545H49.4337L49.6879 12.9236L48.7623 12.545ZM50.9673 10.095L51.4676 10.9609L51.4735 10.9574L50.9673 10.095ZM59.0873 11.18L58.2907 11.7844L58.2907 11.7844L59.0873 11.18ZM60.6273 27V28H61.6273V27H60.6273ZM56.1823 27H55.1823V28H56.1823V27ZM50.0573 14.085L49.3121 13.4182L49.311 13.4194L50.0573 14.085ZM48.9023 27V28H49.9023V27H48.9023ZM44.4223 27H43.4223V28H44.4223V27ZM45.4223 14.12C45.4223 11.9933 45.376 10.4116 45.2776 9.4029L43.2871 9.5971C43.3753 10.5017 43.4223 12 43.4223 14.12H45.4223ZM44.2823 10.5H48.4823V8.5H44.2823V10.5ZM47.4894 9.61821C47.6011 10.5566 47.6573 11.532 47.6573 12.545H49.6573C49.6573 11.458 49.597 10.4034 49.4753 9.38179L47.4894 9.61821ZM48.6573 13.545H48.7623V11.545H48.6573V13.545ZM49.6879 12.9236C50.0161 12.1214 50.5905 11.4677 51.4676 10.9609L50.4671 9.22913C49.2442 9.93566 48.3486 10.9153 47.8368 12.1664L49.6879 12.9236ZM51.4735 10.9574C52.3856 10.4221 53.3994 10.15 54.5373 10.15V8.15C53.062 8.15 51.6957 8.50792 50.4611 9.23258L51.4735 10.9574ZM54.5373 10.15C56.2951 10.15 57.4886 10.7272 58.2907 11.7844L59.884 10.5756C58.6327 8.92618 56.7929 8.15 54.5373 8.15V10.15ZM58.2907 11.7844C59.1304 12.8913 59.6273 14.6334 59.6273 17.165H61.6273C61.6273 14.4232 61.0977 12.1754 59.884 10.5756L58.2907 11.7844ZM59.6273 17.165V27H61.6273V17.165H59.6273ZM60.6273 26H56.1823V28H60.6273V26ZM57.1823 27V17.13H55.1823V27H57.1823ZM57.1823 17.13C57.1823 15.5478 56.9347 14.1861 56.2666 13.2315L54.6281 14.3785C54.9399 14.8239 55.1823 15.6788 55.1823 17.13H57.1823ZM56.2666 13.2315C55.5415 12.1957 54.4083 11.755 53.1023 11.755V13.755C53.9431 13.755 54.3732 14.0143 54.6281 14.3785L56.2666 13.2315ZM53.1023 11.755C51.5939 11.755 50.3035 12.3102 49.3121 13.4182L50.8026 14.7518C51.3979 14.0865 52.1374 13.755 53.1023 13.755V11.755ZM49.311 13.4194C48.3476 14.4996 47.9023 15.8721 47.9023 17.445H49.9023C49.9023 16.2646 50.2271 15.3971 50.8036 14.7506L49.311 13.4194ZM47.9023 17.445V27H49.9023V17.445H47.9023ZM48.9023 26H44.4223V28H48.9023V26ZM45.4223 27V14.12H43.4223V27H45.4223ZM65.404 24.865L64.6147 25.4789L64.6194 25.485L64.6242 25.491L65.404 24.865ZM64.354 13.315L63.4442 12.9L63.4442 12.9L64.354 13.315ZM66.944 10.235L66.4094 9.38988L66.4015 9.39496L66.944 10.235ZM73.629 9.675L73.2152 10.5854L73.2254 10.5899L73.629 9.675ZM75.694 11.285L74.9156 11.9128L75.2158 12.285H75.694V11.285ZM75.764 11.285V12.285H76.764V11.285H75.764ZM75.764 1.03V0.0299985H74.764V1.03H75.764ZM80.209 1.03H81.209V0.0299985H80.209V1.03ZM80.314 27V28H81.4228L81.3087 26.8971L80.314 27ZM76.114 27L75.1158 27.0587L75.1711 28H76.114V27ZM76.079 24.69H77.079V23.69H76.079V24.69ZM76.009 24.69V23.69H75.4782L75.1807 24.1297L76.009 24.69ZM73.769 26.615L73.3131 25.7249L73.3042 25.7296L73.769 26.615ZM74.644 22.87L75.3394 23.5886L75.3398 23.5882L74.644 22.87ZM68.869 22.415L68.0253 22.9519L68.031 22.9607L68.869 22.415ZM70.829 26.35C68.819 26.35 67.308 25.6393 66.1838 24.239L64.6242 25.491C66.16 27.4041 68.2657 28.35 70.829 28.35V26.35ZM66.1934 24.2511C65.066 22.8015 64.444 20.7457 64.444 17.97H62.444C62.444 21.0277 63.1288 23.5685 64.6147 25.4789L66.1934 24.2511ZM64.444 17.97C64.444 16.3099 64.7279 14.905 65.2638 13.73L63.4442 12.9C62.7668 14.385 62.444 16.0834 62.444 17.97H64.444ZM65.2638 13.73C65.7991 12.5565 66.5424 11.6848 67.4865 11.075L66.4015 9.39496C65.1056 10.2319 64.1222 11.4135 63.4442 12.9L65.2638 13.73ZM67.4787 11.0801C68.4432 10.4699 69.583 10.15 70.934 10.15V8.15C69.2517 8.15 67.7315 8.55347 66.4094 9.38992L67.4787 11.0801ZM70.934 10.15C71.8479 10.15 72.5999 10.3057 73.2152 10.5854L74.0428 8.76463C73.1181 8.34432 72.0735 8.15 70.934 8.15V10.15ZM73.2254 10.5899C73.8623 10.8709 74.4251 11.3046 74.9156 11.9128L76.4724 10.6572C75.7963 9.81878 74.9824 9.17909 74.0327 8.76008L73.2254 10.5899ZM75.694 12.285H75.764V10.285H75.694V12.285ZM76.764 11.285V1.03H74.764V11.285H76.764ZM75.764 2.03H80.209V0.0299985H75.764V2.03ZM79.209 1.03V22.345H81.209V1.03H79.209ZM79.209 22.345C79.209 24.7565 79.2429 26.3644 79.3193 27.1029L81.3087 26.8971C81.2451 26.2823 81.209 24.7869 81.209 22.345H79.209ZM80.314 26H76.114V28H80.314V26ZM77.1123 26.9413C77.091 26.5785 77.079 25.8373 77.079 24.69H75.079C75.079 25.8293 75.0904 26.6281 75.1158 27.0587L77.1123 26.9413ZM76.079 23.69H76.009V25.69H76.079V23.69ZM75.1807 24.1297C74.7495 24.7671 74.1385 25.3022 73.3131 25.725L74.2249 27.505C75.3129 26.9478 76.1952 26.1995 76.8373 25.2503L75.1807 24.1297ZM73.3042 25.7296C72.5103 26.1464 71.6893 26.35 70.829 26.35V28.35C72.0221 28.35 73.1611 28.0636 74.2339 27.5004L73.3042 25.7296ZM71.704 24.92C73.1375 24.92 74.3889 24.5084 75.3394 23.5886L73.9486 22.1514C73.4524 22.6316 72.7439 22.92 71.704 22.92V24.92ZM75.3398 23.5882C76.3056 22.6527 76.764 21.4361 76.764 20.035H74.764C74.764 20.9673 74.4758 21.6407 73.9482 22.1518L75.3398 23.5882ZM76.764 20.035V16.43H74.764V20.035H76.764ZM76.764 16.43C76.764 15.036 76.2832 13.8255 75.3052 12.8771L73.9129 14.3129C74.4748 14.8578 74.764 15.5373 74.764 16.43H76.764ZM75.3052 12.8771C74.3314 11.9328 73.1056 11.475 71.704 11.475V13.475C72.6358 13.475 73.3467 13.7638 73.9129 14.3129L75.3052 12.8771ZM71.704 11.475C70.1634 11.475 68.8973 12.0954 68.0432 13.346L69.6948 14.474C70.1474 13.8112 70.7713 13.475 71.704 13.475V11.475ZM68.0432 13.346C67.2297 14.5373 66.889 16.145 66.889 18.04H68.889C68.889 16.3417 69.2017 15.196 69.6948 14.474L68.0432 13.346ZM66.889 18.04C66.889 20.0233 67.2281 21.699 68.0254 22.9519L69.7127 21.8781C69.2033 21.0777 68.889 19.8367 68.889 18.04H66.889ZM68.031 22.9607C68.8761 24.2585 70.1426 24.92 71.704 24.92V22.92C70.7921 22.92 70.1686 22.5782 69.707 21.8693L68.031 22.9607ZM85.2706 12.545H86.2706V11.545H85.2706V12.545ZM82.4006 12.545H81.4006V13.545H82.4006V12.545ZM82.4006 9.5V8.5H81.4006V9.5H82.4006ZM85.2706 9.5V10.5H86.2706V9.5H85.2706ZM86.8806 3.375L87.5549 4.11349L87.5549 4.11349L86.8806 3.375ZM93.7056 2.325L93.3545 3.26133L93.3675 3.26619L93.3805 3.27068L93.7056 2.325ZM95.5256 3.41L96.3911 3.91104L96.776 3.24615L96.2327 2.70289L95.5256 3.41ZM93.9856 6.07L93.3099 6.80715L94.2274 7.64821L94.8511 6.57103L93.9856 6.07ZM93.0056 5.475L92.6545 6.41133L92.6545 6.41133L93.0056 5.475ZM90.2756 5.93L89.5304 5.2632L89.5204 5.27439L89.5107 5.28586L90.2756 5.93ZM89.7156 9.5H88.7156V10.5H89.7156V9.5ZM94.6506 9.5H95.6506V8.5H94.6506V9.5ZM94.6506 12.545V13.545H95.6506V12.545H94.6506ZM89.7156 12.545V11.545H88.7156V12.545H89.7156ZM89.7156 27V28H90.7156V27H89.7156ZM85.2706 27H84.2706V28H85.2706V27ZM97.8006 26.16L97.073 26.846L97.0831 26.8567L97.0935 26.8671L97.8006 26.16ZM96.6456 1.03V0.0299985H95.6456V1.03H96.6456ZM101.091 1.03H102.091V0.0299985H101.091V1.03ZM101.476 23.885L100.769 24.5921L100.801 24.6242L100.835 24.6532L101.476 23.885ZM104.696 23.78L105.659 23.5109L105.363 22.4541L104.338 22.8459L104.696 23.78ZM105.361 26.16L105.963 26.9579L106.507 26.5471L106.324 25.8909L105.361 26.16ZM85.2706 11.545H82.4006V13.545H85.2706V11.545ZM83.4006 12.545V9.5H81.4006V12.545H83.4006ZM82.4006 10.5H85.2706V8.5H82.4006V10.5ZM86.2706 9.5V7.4H84.2706V9.5H86.2706ZM86.2706 7.4C86.2706 5.92479 86.7251 4.87109 87.5549 4.11349L86.2064 2.63651C84.8894 3.83891 84.2706 5.46854 84.2706 7.4H86.2706ZM87.5549 4.11349C88.3962 3.34533 89.6002 2.905 91.2906 2.905V0.905C89.2477 0.905 87.5117 1.44467 86.2064 2.63651L87.5549 4.11349ZM91.2906 2.905C92.044 2.905 92.7291 3.02679 93.3545 3.26133L94.0567 1.38867C93.1889 1.06321 92.2639 0.905 91.2906 0.905V2.905ZM93.3805 3.27068C94.0113 3.48751 94.4785 3.77708 94.8185 4.11711L96.2327 2.70289C95.6394 2.10959 94.8933 1.67582 94.0307 1.37931L93.3805 3.27068ZM94.6602 2.90896L93.1202 5.56896L94.8511 6.57103L96.3911 3.91104L94.6602 2.90896ZM94.6613 5.33284C94.2823 4.98534 93.844 4.72138 93.3567 4.53867L92.6545 6.41133C92.9139 6.50861 93.129 6.64132 93.3099 6.80715L94.6613 5.33284ZM93.3568 4.53867C92.8788 4.35945 92.3868 4.265 91.8856 4.265V6.265C92.1311 6.265 92.3858 6.31055 92.6545 6.41133L93.3568 4.53867ZM91.8856 4.265C90.9678 4.265 90.1438 4.57757 89.5304 5.2632L91.0209 6.59679C91.2007 6.39576 91.4501 6.265 91.8856 6.265V4.265ZM89.5107 5.28586C88.9419 5.96139 88.7156 6.82243 88.7156 7.75H90.7156C90.7156 7.13757 90.8627 6.78528 91.0405 6.57413L89.5107 5.28586ZM88.7156 7.75V9.5H90.7156V7.75H88.7156ZM89.7156 10.5H94.6506V8.5H89.7156V10.5ZM93.6506 9.5V12.545H95.6506V9.5H93.6506ZM94.6506 11.545H89.7156V13.545H94.6506V11.545ZM88.7156 12.545V27H90.7156V12.545H88.7156ZM89.7156 26H85.2706V28H89.7156V26ZM86.2706 27V12.545H84.2706V27H86.2706ZM101.231 26.35C99.9118 26.35 99.0579 26.003 98.5077 25.4529L97.0935 26.8671C98.1301 27.9036 99.5628 28.35 101.231 28.35V26.35ZM98.5282 25.474C97.9871 24.9001 97.6456 24.0129 97.6456 22.66H95.6456C95.6456 24.3404 96.0741 25.7866 97.073 26.846L98.5282 25.474ZM97.6456 22.66V1.03H95.6456V22.66H97.6456ZM96.6456 2.03H101.091V0.0299985H96.6456V2.03ZM100.091 1.03V22.73H102.091V1.03H100.091ZM100.091 22.73C100.091 23.3975 100.258 24.0818 100.769 24.5921L102.183 23.1779C102.18 23.1749 102.091 23.0892 102.091 22.73H100.091ZM100.835 24.6532C101.363 25.093 102.037 25.235 102.701 25.235V23.235C102.291 23.235 102.148 23.1437 102.116 23.1168L100.835 24.6532ZM102.701 25.235C103.409 25.235 104.204 25.0386 105.053 24.7141L104.338 22.8459C103.601 23.1281 103.065 23.235 102.701 23.235V25.235ZM103.733 24.0491L104.398 26.4291L106.324 25.8909L105.659 23.5109L103.733 24.0491ZM104.758 25.3621C103.927 25.9902 102.781 26.35 101.231 26.35V28.35C103.087 28.35 104.695 27.9165 105.963 26.9579L104.758 25.3621ZM108.382 24.935L107.67 25.6369L107.67 25.6369L108.382 24.935ZM108.382 11.565L109.094 12.2669L109.094 12.2669L108.382 11.565ZM121.612 11.565L120.9 12.2669L120.905 12.2721L121.612 11.565ZM121.612 24.935L120.905 24.2279L120.9 24.2331L121.612 24.935ZM118.357 22.485L117.574 21.8625L117.574 21.8625L118.357 22.485ZM111.637 14.015L110.854 13.3924L110.846 13.4036L111.637 14.015ZM111.637 22.485L110.845 23.0965L110.854 23.1075L111.637 22.485ZM114.997 26.35C112.371 26.35 110.448 25.6074 109.094 24.2331L107.67 25.6369C109.489 27.4826 111.976 28.35 114.997 28.35V26.35ZM109.094 24.2331C107.737 22.8556 107.002 20.9056 107.002 18.25H105.002C105.002 21.2877 105.854 23.7944 107.67 25.6369L109.094 24.2331ZM107.002 18.25C107.002 15.5944 107.737 13.6444 109.094 12.2669L107.67 10.8631C105.854 12.7056 105.002 15.2123 105.002 18.25H107.002ZM109.094 12.2669C110.448 10.8926 112.371 10.15 114.997 10.15V8.15C111.976 8.15 109.489 9.01735 107.67 10.8631L109.094 12.2669ZM114.997 10.15C117.623 10.15 119.545 10.8926 120.9 12.2669L122.324 10.8631C120.505 9.01735 118.017 8.15 114.997 8.15V10.15ZM120.905 12.2721C122.283 13.6502 123.027 15.5985 123.027 18.25H125.027C125.027 15.2082 124.161 12.6998 122.319 10.8579L120.905 12.2721ZM123.027 18.25C123.027 20.9015 122.283 22.8498 120.905 24.2279L122.319 25.6421C124.161 23.8002 125.027 21.2918 125.027 18.25H123.027ZM120.9 24.2331C119.545 25.6074 117.623 26.35 114.997 26.35V28.35C118.017 28.35 120.505 27.4826 122.324 25.6369L120.9 24.2331ZM114.997 25.025C116.695 25.025 118.115 24.395 119.139 23.1075L117.574 21.8625C116.965 22.6283 116.145 23.025 114.997 23.025V25.025ZM119.139 23.1075C120.141 21.8485 120.582 20.19 120.582 18.25H118.582C118.582 19.9033 118.206 21.0682 117.574 21.8625L119.139 23.1075ZM120.582 18.25C120.582 16.31 120.141 14.6515 119.139 13.3925L117.574 14.6375C118.206 15.4318 118.582 16.5967 118.582 18.25H120.582ZM119.139 13.3925C118.115 12.105 116.695 11.475 114.997 11.475V13.475C116.145 13.475 116.965 13.8717 117.574 14.6375L119.139 13.3925ZM114.997 11.475C113.298 11.475 111.878 12.105 110.854 13.3925L112.419 14.6375C113.029 13.8717 113.849 13.475 114.997 13.475V11.475ZM110.846 13.4036C109.873 14.6617 109.447 16.3158 109.447 18.25H111.447C111.447 16.5909 111.814 15.4216 112.428 14.6264L110.846 13.4036ZM109.447 18.25C109.447 20.1842 109.873 21.8383 110.846 23.0964L112.428 21.8736C111.814 21.0784 111.447 19.9091 111.447 18.25H109.447ZM110.854 23.1075C111.878 24.395 113.298 25.025 114.997 25.025V23.025C113.849 23.025 113.029 22.6283 112.419 21.8625L110.854 23.1075Z" fill="black"/>
</g>
<defs>
<filter id="filter0_d" x="0.988922" y="0.0299988" width="128.038" height="36.32" filterUnits="userSpaceOnUse" color-interpolation-filters="sRGB">
<feFlood flood-opacity="0" result="BackgroundImageFix"/>
<feColorMatrix in="SourceAlpha" type="matrix" values="0 0 0 0 0 0 0 0 0 0 0 0 0 0 0 0 0 0 127 0"/>
<feOffset dy="4"/>
<feGaussianBlur stdDeviation="2"/>
<feColorMatrix type="matrix" values="0 0 0 0 0 0 0 0 0 0 0 0 0 0 0 0 0 0 0.25 0"/>
<feBlend mode="normal" in2="BackgroundImageFix" result="effect1_dropShadow"/>
<feBlend mode="normal" in="SourceGraphic" in2="effect1_dropShadow" result="shape"/>
</filter>
</defs>
</svg>
