<svg width="260" height="80" viewBox="0 0 2696 1159" fill="none" xmlns="http://www.w3.org/2000/svg">
<path d="M210.938 834.715L316.406 451.512H448.682L288.281 927H208.301L210.938 834.715ZM138.428 451.512L244.336 835.154L246.533 927H166.113L5.71289 451.512H138.428ZM718.066 935.789C681.152 935.789 648.047 929.93 618.75 918.211C589.453 906.199 564.551 889.646 544.043 868.553C523.828 847.459 508.301 822.996 497.461 795.164C486.621 767.039 481.201 737.156 481.201 705.516V687.938C481.201 651.902 486.328 618.943 496.582 589.061C506.836 559.178 521.484 533.25 540.527 511.277C559.863 489.305 583.301 472.459 610.84 460.74C638.379 448.729 669.434 442.723 704.004 442.723C737.695 442.723 767.578 448.289 793.652 459.422C819.727 470.555 841.553 486.375 859.131 506.883C877.002 527.391 890.479 552 899.561 580.711C908.643 609.129 913.184 640.77 913.184 675.633V728.367H535.254V643.992H788.818V634.324C788.818 616.746 785.596 601.072 779.15 587.303C772.998 573.24 763.623 562.107 751.025 553.904C738.428 545.701 722.314 541.6 702.686 541.6C685.986 541.6 671.631 545.262 659.619 552.586C647.607 559.91 637.793 570.164 630.176 583.348C622.852 596.531 617.285 612.059 613.477 629.93C609.961 647.508 608.203 666.844 608.203 687.938V705.516C608.203 724.559 610.84 742.137 616.113 758.25C621.68 774.363 629.443 788.279 639.404 799.998C649.658 811.717 661.963 820.799 676.318 827.244C690.967 833.689 707.52 836.912 725.977 836.912C748.828 836.912 770.068 832.518 789.697 823.729C809.619 814.646 826.758 801.023 841.113 782.859L902.637 849.656C892.676 864.012 879.053 877.781 861.768 890.965C844.775 904.148 824.268 914.988 800.244 923.484C776.221 931.688 748.828 935.789 718.066 935.789ZM1109.18 553.025V927H982.617V451.512H1101.27L1109.18 553.025ZM1090.72 672.557H1056.45C1056.45 637.4 1060.99 605.76 1070.07 577.635C1079.15 549.217 1091.89 525.047 1108.3 505.125C1124.71 484.91 1144.19 469.529 1166.75 458.982C1189.6 448.143 1215.09 442.723 1243.21 442.723C1265.48 442.723 1285.84 445.945 1304.3 452.391C1322.75 458.836 1338.57 469.09 1351.76 483.152C1365.23 497.215 1375.49 515.818 1382.52 538.963C1389.84 562.107 1393.51 590.379 1393.51 623.777V927H1266.06V623.338C1266.06 602.244 1263.13 585.838 1257.28 574.119C1251.42 562.4 1242.77 554.197 1231.35 549.51C1220.21 544.529 1206.45 542.039 1190.04 542.039C1173.05 542.039 1158.25 545.408 1145.65 552.146C1133.35 558.885 1123.1 568.26 1114.89 580.271C1106.98 591.99 1100.98 605.76 1096.88 621.58C1092.77 637.4 1090.72 654.393 1090.72 672.557ZM1770.56 823.289V252H1898V927H1783.3L1770.56 823.289ZM1469.97 694.969V685.74C1469.97 649.412 1474.07 616.453 1482.28 586.863C1490.48 556.98 1502.49 531.346 1518.31 509.959C1534.13 488.572 1553.61 472.02 1576.76 460.301C1599.9 448.582 1626.27 442.723 1655.86 442.723C1683.69 442.723 1708.01 448.582 1728.81 460.301C1749.9 472.02 1767.77 488.719 1782.42 510.398C1797.36 531.785 1809.38 557.127 1818.46 586.424C1827.54 615.428 1834.13 647.215 1838.23 681.785V702C1834.13 735.105 1827.54 765.867 1818.46 794.285C1809.38 822.703 1797.36 847.605 1782.42 868.992C1767.77 890.086 1749.9 906.492 1728.81 918.211C1707.71 929.93 1683.11 935.789 1654.98 935.789C1625.39 935.789 1599.02 929.783 1575.88 917.771C1553.03 905.76 1533.69 888.914 1517.87 867.234C1502.34 845.555 1490.48 820.066 1482.28 790.77C1474.07 761.473 1469.97 729.539 1469.97 694.969ZM1596.53 685.74V694.969C1596.53 714.598 1598 732.908 1600.93 749.9C1604.15 766.893 1609.28 781.98 1616.31 795.164C1623.63 808.055 1633.01 818.162 1644.43 825.486C1656.15 832.518 1670.36 836.033 1687.06 836.033C1708.74 836.033 1726.61 831.199 1740.67 821.531C1754.74 811.57 1765.43 797.947 1772.75 780.662C1780.37 763.377 1784.77 743.455 1785.94 720.896V663.328C1785.06 644.871 1782.42 628.318 1778.03 613.67C1773.93 598.729 1767.77 585.984 1759.57 575.438C1751.66 564.891 1741.7 556.688 1729.69 550.828C1717.97 544.969 1704.05 542.039 1687.94 542.039C1671.53 542.039 1657.47 545.848 1645.75 553.465C1634.03 560.789 1624.51 570.896 1617.19 583.787C1610.16 596.678 1604.88 611.912 1601.37 629.49C1598.14 646.775 1596.53 665.525 1596.53 685.74Z" fill="black"/>
<path d="M2135.74 728.807L2153.76 742.43L2149.37 751.658C2138.53 773.338 2124.17 790.623 2106.3 803.514C2088.72 816.111 2069.38 822.41 2048.29 822.41C2042.14 822.41 2035.69 821.824 2028.96 820.652C2022.51 819.188 2016.06 817.137 2009.62 814.5V1147.61L1964.79 1152C1961.28 1102.49 1958.2 1049.02 1955.57 991.6C1954.39 966.99 1953.22 940.33 1952.05 911.619C1951.17 882.908 1950.29 852.732 1949.41 821.092C1948.54 789.158 1947.95 756.053 1947.66 721.775C1947.07 687.205 1946.78 652.049 1946.78 616.307C1946.78 560.057 1949.85 510.398 1956.01 467.332C1962.16 424.266 1970.36 388.084 1980.62 358.787C1991.16 329.49 2003.17 307.371 2016.65 292.43C2030.13 277.488 2044.34 270.018 2059.28 270.018C2064.84 270.018 2070.12 271.043 2075.1 273.094C2080.08 274.852 2084.33 277.781 2087.84 281.883C2091.65 285.984 2094.58 291.551 2096.63 298.582C2098.68 305.613 2099.71 314.109 2099.71 324.07C2099.71 349.266 2096.78 377.098 2090.92 407.566C2085.06 437.742 2077.59 468.357 2068.51 499.412C2059.72 530.467 2050.05 560.936 2039.5 590.818C2028.96 620.408 2018.99 647.215 2009.62 671.238V769.676C2012.26 773.191 2015.33 776.268 2018.85 778.904C2022.66 781.541 2026.61 783.738 2030.71 785.496C2035.11 786.961 2039.5 788.133 2043.9 789.012C2048.29 789.891 2052.25 790.33 2055.76 790.33C2071 790.33 2085.06 786.375 2097.95 778.465C2110.84 770.555 2121.97 757.078 2131.35 738.035L2135.74 728.807ZM2009.62 614.549C2016.94 593.748 2023.83 572.068 2030.27 549.51C2036.72 526.951 2042.43 504.246 2047.41 481.395C2052.39 458.25 2056.35 435.252 2059.28 412.4C2062.21 389.549 2063.67 367.576 2063.67 346.482C2063.67 333.006 2062.35 322.166 2059.72 313.963C2057.08 305.76 2052.1 301.658 2044.78 301.658C2038.33 301.658 2032.76 308.25 2028.08 321.434C2023.68 334.617 2020.02 352.488 2017.09 375.047C2014.45 397.313 2012.55 423.533 2011.38 453.709C2010.21 483.592 2009.62 515.379 2009.62 549.07V614.549ZM2230.22 871.189C2235.5 871.189 2241.5 867.82 2248.24 861.082C2255.27 854.051 2262.74 844.529 2270.65 832.518C2278.56 820.506 2286.91 806.443 2295.7 790.33C2304.49 774.217 2313.57 756.785 2322.95 738.035L2327.34 728.807L2345.36 742.43L2340.97 751.658C2325.44 782.713 2311.52 809.373 2299.22 831.639C2287.21 853.611 2275.93 871.775 2265.38 886.131C2254.83 900.193 2244.73 910.594 2235.06 917.332C2225.68 923.777 2216.02 927 2206.05 927C2192.87 927 2181.45 922.752 2171.78 914.256C2162.4 905.467 2154.49 890.965 2148.05 870.75C2141.89 850.242 2137.35 823.289 2134.42 789.891C2131.2 756.492 2129.59 715.184 2129.59 665.965C2129.59 596.238 2132.52 536.473 2138.38 486.668C2144.24 436.57 2152.15 395.555 2162.11 363.621C2172.36 331.395 2184.08 307.811 2197.27 292.869C2210.74 277.635 2224.8 270.018 2239.45 270.018C2248.24 270.018 2255.57 273.68 2261.43 281.004C2267.58 288.035 2270.65 300.926 2270.65 319.676C2270.65 334.324 2269.48 351.023 2267.14 369.773C2264.79 388.523 2261.72 408.592 2257.91 429.979C2254.1 451.365 2249.56 473.631 2244.29 496.775C2239.01 519.627 2233.45 542.479 2227.59 565.33C2221.73 587.889 2215.72 610.154 2209.57 632.127C2203.42 653.807 2197.41 674.168 2191.55 693.211C2193.31 729.246 2195.21 758.836 2197.27 781.98C2199.61 804.832 2202.25 822.85 2205.18 836.033C2208.4 849.217 2212.06 858.445 2216.16 863.719C2220.26 868.699 2224.95 871.189 2230.22 871.189ZM2242.09 330.223C2242.09 324.07 2241.36 319.236 2239.89 315.721C2238.43 312.205 2236.08 310.447 2232.86 310.447C2229.64 310.447 2226.42 314.988 2223.19 324.07C2219.97 333.152 2216.75 345.457 2213.53 360.984C2210.6 376.512 2207.81 394.529 2205.18 415.037C2202.83 435.545 2200.63 457.371 2198.58 480.516C2196.53 503.367 2194.92 526.805 2193.75 550.828C2192.58 574.852 2191.85 597.996 2191.55 620.262C2198.58 594.48 2205.03 568.113 2210.89 541.16C2217.04 513.914 2222.46 487.547 2227.15 462.059C2231.84 436.57 2235.5 412.547 2238.13 389.988C2240.77 367.137 2242.09 347.215 2242.09 330.223ZM2695.61 742.43L2690.77 751.658C2680.81 771.58 2667.48 787.547 2650.78 799.559C2634.38 811.277 2616.5 818.895 2597.17 822.41C2591.89 837.352 2585.01 851.268 2576.51 864.158C2568.31 876.756 2558.79 887.742 2547.95 897.117C2537.4 906.492 2525.39 913.816 2511.91 919.09C2498.73 924.363 2484.38 927 2468.85 927C2446.29 927 2425.93 922.312 2407.76 912.938C2389.89 903.27 2374.66 890.379 2362.06 874.266C2349.46 857.859 2339.79 838.816 2333.06 817.137C2326.32 795.164 2322.95 771.727 2322.95 746.824C2322.95 725.145 2325.44 705.516 2330.42 687.938C2335.4 670.066 2341.7 654.246 2349.32 640.477C2356.93 626.414 2365.43 614.256 2374.8 604.002C2384.18 593.455 2393.41 584.812 2402.49 578.074C2411.57 571.336 2419.78 566.355 2427.1 563.133C2434.72 559.617 2440.43 557.859 2444.24 557.859L2449.95 573.24C2437.94 582.029 2427.25 594.334 2417.87 610.154C2409.67 623.631 2402.2 641.502 2395.46 663.768C2389.01 686.033 2385.79 713.719 2385.79 746.824C2385.79 767.039 2387.7 786.668 2391.5 805.711C2395.31 824.754 2400.88 841.6 2408.2 856.248C2415.53 870.896 2424.46 882.615 2435.01 891.404C2445.85 900.193 2458.01 904.588 2471.48 904.588C2489.94 904.588 2505.18 897.264 2517.19 882.615C2529.49 867.674 2538.57 847.312 2544.43 821.531C2529.2 818.309 2514.7 812.303 2500.93 803.514C2487.16 794.725 2475 783.885 2464.45 770.994C2453.91 757.811 2445.41 742.723 2438.96 725.73C2432.81 708.738 2429.74 690.281 2429.74 670.359C2429.74 653.953 2431.79 639.598 2435.89 627.293C2440.28 614.695 2446 604.295 2453.03 596.092C2460.06 587.596 2468.12 581.297 2477.2 577.195C2486.57 572.801 2496.39 570.604 2506.64 570.604C2518.65 570.604 2530.96 574.119 2543.55 581.15C2556.15 587.889 2567.58 598.143 2577.83 611.912C2588.09 625.389 2596.44 642.381 2602.88 662.889C2609.33 683.396 2612.55 707.273 2612.55 734.52C2612.55 744.773 2611.96 754.881 2610.79 764.842C2609.62 774.803 2607.86 784.471 2605.52 793.846C2619.58 789.744 2632.32 783.152 2643.75 774.07C2655.47 764.988 2665.14 752.977 2672.75 738.035L2677.59 728.807L2695.61 742.43ZM2458.74 666.844C2458.74 684.129 2461.08 700.096 2465.77 714.744C2470.75 729.1 2477.34 741.844 2485.55 752.977C2493.75 763.816 2503.27 772.898 2514.11 780.223C2524.95 787.547 2536.52 792.674 2548.83 795.604C2550.29 787.4 2551.17 778.904 2551.46 770.115C2552.05 761.033 2552.34 751.805 2552.34 742.43C2552.34 721.629 2550.73 702.879 2547.51 686.18C2544.29 669.188 2540.04 654.832 2534.77 643.113C2529.49 631.102 2523.34 621.873 2516.31 615.428C2509.28 608.982 2502.1 605.76 2494.78 605.76C2484.81 605.76 2476.32 611.18 2469.29 622.02C2462.26 632.566 2458.74 647.508 2458.74 666.844Z" fill="#49BDFF"/>
</svg>
